<svg width="147" height="28" viewBox="0 0 147 28" fill="none" xmlns="http://www.w3.org/2000/svg">
<g clip-path="url(#clip0_92_760)">
<path d="M13.2813 0.526855C14.5193 0.526855 15.6629 0.621179 16.7123 0.904148C17.7616 1.09279 18.6223 1.48188 19.3887 1.95349C20.1551 2.42511 20.721 3.09716 21.1101 3.95786C21.4874 4.81856 21.6878 5.8679 21.6878 7.01157C21.6878 8.34389 21.4048 9.48755 20.7328 10.3483C20.1551 11.209 19.2118 11.9753 18.0564 12.5413C19.6834 13.0129 20.9214 13.8736 21.676 15.0172C22.4306 16.1609 22.914 17.5876 22.914 19.2146C22.914 20.5469 22.631 21.6906 22.1476 22.6456C21.676 23.6007 20.9096 24.4614 20.0489 25.0273C19.1882 25.605 18.1389 26.0766 16.9952 26.3596C15.8516 26.6426 14.7079 26.8312 13.5642 26.8312L0.783447 26.8548V0.526855H13.2813ZM12.5149 11.209C13.5642 11.209 14.4249 10.926 15.0852 10.4426C15.7455 9.95917 16.0402 9.11026 16.0402 8.06092C16.0402 7.48319 15.9459 6.91725 15.7572 6.53996C15.5686 6.16266 15.2856 5.8679 14.8965 5.58493C14.5193 5.39629 14.1302 5.20764 13.6586 5.11332C13.1869 5.019 12.7035 5.01899 12.1376 5.01899H6.6079V11.2207C6.6079 11.209 12.5149 11.209 12.5149 11.209ZM12.7979 22.4688C13.3756 22.4688 13.9415 22.3745 14.4249 22.2801C14.8965 22.1858 15.38 21.9972 15.7572 21.7024C16.1345 21.4076 16.4293 21.1247 16.7123 20.6531C16.9009 20.1814 17.0896 19.6037 17.0896 18.9317C17.0896 17.5993 16.7123 16.6443 15.9459 15.9723C15.1795 15.3945 14.1302 15.1116 12.8922 15.1116H6.6079V22.457H12.7979V22.4688Z" fill="white" fill-opacity="0.32"/>
<path d="M31.2144 22.3747C31.9808 23.141 33.1245 23.5183 34.6454 23.5183C35.6948 23.5183 36.6498 23.2354 37.4162 22.7519C38.1826 22.1742 38.6542 21.6083 38.8428 21.0305H43.5118C42.7454 23.3179 41.6018 24.945 40.0808 25.9943C38.5599 26.9493 36.7441 27.5153 34.5511 27.5153C33.0302 27.5153 31.6861 27.2323 30.4481 26.7489C29.2101 26.2773 28.255 25.6052 27.3944 24.6502C26.5337 23.7895 25.8734 22.7402 25.4843 21.5022C25.0127 20.2642 24.8123 18.9319 24.8123 17.3991C24.8123 15.9725 25.0009 14.6284 25.4843 13.3904C25.9677 12.1524 26.628 11.103 27.4887 10.148C28.3494 9.28731 29.3987 8.52094 30.5424 8.04932C31.7804 7.57771 33.0184 7.28295 34.5511 7.28295C36.1782 7.28295 37.6048 7.56592 38.8428 8.23797C40.0808 8.91002 41.0358 9.66461 41.8022 10.8083C42.5686 11.8576 43.1345 13.0956 43.5236 14.4279C43.7123 15.7602 43.8066 17.1043 43.7123 18.6253H29.8821C29.8821 20.1816 30.4481 21.6083 31.2144 22.3747ZM37.2275 12.3528C36.5555 11.6808 35.5061 11.3035 34.2682 11.3035C33.4075 11.3035 32.7472 11.4921 32.1695 11.7751C31.5917 12.0581 31.2144 12.4471 30.8371 12.8244C30.4599 13.2017 30.2594 13.6851 30.1651 14.1567C30.0708 14.6284 29.9764 15.0174 29.9764 15.3947H38.5599C38.3712 13.9799 37.8878 13.0249 37.2275 12.3528ZM28.8328 2.34277H39.5149V4.91308H28.8328V2.34277Z" fill="white" fill-opacity="0.32"/>
<path d="M51.152 0.526855V10.4426H51.2463C51.9184 9.29891 52.7673 8.53253 53.8166 8.06092C54.866 7.5893 55.821 7.29454 56.8703 7.29454C58.297 7.29454 59.4406 7.48319 60.3013 7.87227C61.162 8.24956 61.9284 8.82729 62.4 9.49934C62.8716 10.1714 63.2607 11.0203 63.4494 11.9753C63.638 12.9303 63.7323 13.9797 63.7323 15.2177V26.9491H58.4856V16.1727C58.4856 14.5456 58.2027 13.402 57.7192 12.6474C57.2358 11.8928 56.3987 11.4919 55.1607 11.4919C53.7341 11.4919 52.6847 11.9635 52.107 12.7299C51.435 13.5906 51.152 15.0172 51.152 16.9273V26.9491H45.9053V0.526855H51.152Z" fill="white" fill-opacity="0.32"/>
<path d="M67.5641 10.6428C68.1419 9.78214 68.8021 9.2162 69.6628 8.63847C70.5235 8.16685 71.4785 7.77777 72.5279 7.58912C73.5772 7.40048 74.6266 7.30615 75.6759 7.30615C76.6309 7.30615 77.586 7.40048 78.6353 7.4948C79.5903 7.58912 80.5453 7.87209 81.3117 8.26117C82.1724 8.63847 82.7384 9.2162 83.3161 9.88825C83.7877 10.5603 84.0825 11.5153 84.0825 12.659V22.6808C84.0825 23.5415 84.1768 24.4022 84.2711 25.1568C84.3654 25.9232 84.6484 26.5834 84.9432 26.9725H79.6021C79.4135 26.7839 79.3191 26.3948 79.2248 26.1118C79.1305 25.8289 79.1305 25.4398 79.1305 25.1568C78.2698 26.0175 77.3148 26.5834 76.1711 26.9725C75.0274 27.3498 73.8838 27.4441 72.7401 27.4441C71.7851 27.4441 71.0187 27.3498 70.1698 27.0669C69.4034 26.8782 68.7432 26.4891 68.0711 26.0175C67.4934 25.5459 67.0218 24.9682 66.6445 24.2018C66.3615 23.4354 66.1729 22.6808 66.1729 21.6315C66.1729 20.5821 66.3615 19.6271 66.7506 18.9551C67.1279 18.283 67.6113 17.7171 68.1772 17.2337C68.7549 16.8564 69.5095 16.4673 70.2759 16.2786C71.0423 16.09 71.7969 15.9013 72.6576 15.807C73.4239 15.7127 74.1785 15.6184 74.9449 15.5241C75.7113 15.4297 76.3715 15.3354 76.9493 15.2411C77.527 15.0524 77.9986 14.8638 78.3759 14.569C78.7532 14.2861 78.8475 13.897 78.8475 13.331C78.8475 12.7533 78.7532 12.2817 78.5646 11.9987C78.3759 11.7158 78.0929 11.421 77.7982 11.2324C77.5152 11.0437 77.1261 10.9494 76.7488 10.8551C76.3715 10.7607 75.8881 10.7607 75.4165 10.7607C74.3672 10.7607 73.6008 10.9494 73.0349 11.4328C72.4571 11.9044 72.0798 12.6708 71.9855 13.6258H66.7388C66.7034 12.4468 67.0807 11.3974 67.5641 10.6428ZM77.9632 18.0826C77.6803 18.1769 77.2912 18.2712 76.9139 18.3655C76.5366 18.4599 76.1475 18.4599 75.6759 18.5542C75.2986 18.6485 74.8152 18.6485 74.4379 18.7428C74.0606 18.8372 73.6715 18.9315 73.2943 19.0258C72.917 19.1201 72.5279 19.3088 72.3392 19.4974C72.0563 19.6861 71.8676 19.969 71.6672 20.2638C71.3842 20.6411 71.3842 21.0302 71.3842 21.5018C71.3842 21.9734 71.4785 22.3625 71.6672 22.6455C71.8558 22.9284 72.0445 23.2232 72.3392 23.4118C72.6222 23.6005 73.0113 23.6948 73.3886 23.7891C73.7659 23.8834 74.1549 23.8834 74.6266 23.8834C75.6759 23.8834 76.4423 23.6948 77.0082 23.4118C77.586 23.0345 77.9632 22.6455 78.2462 22.1738C78.5292 21.7022 78.7178 21.2188 78.7178 20.7472C78.8122 20.2756 78.8122 19.8865 78.8122 19.6035V17.5992C78.5292 17.7878 78.2462 17.9882 77.9632 18.0826Z" fill="white" fill-opacity="0.32"/>
<path d="M91.9821 7.77777V10.4542H92.0765C92.7485 9.31052 93.5974 8.54414 94.6468 8.07253C95.6961 7.60091 96.8398 7.30615 97.8891 7.30615C99.3158 7.30615 100.459 7.4948 101.32 7.88388C102.275 8.26117 102.947 8.8389 103.419 9.51096C103.89 10.183 104.28 11.0319 104.562 11.9869C104.751 12.942 104.845 13.9913 104.845 15.2293V26.9607H99.5987V16.1843C99.5987 14.5572 99.3158 13.4136 98.8324 12.659C98.3607 11.8926 97.5 11.421 96.1559 11.421C94.7293 11.421 93.68 11.9987 93.0079 12.8476C92.3359 13.7083 92.0529 15.135 92.0529 17.045V27.0669H86.8062V7.77777C86.8297 7.77777 91.9821 7.77777 91.9821 7.77777Z" fill="white" fill-opacity="0.32"/>
<path d="M116.6 11.2088C115.74 11.2088 115.079 11.3975 114.502 11.7866C113.924 12.1639 113.452 12.6473 113.075 13.3075C112.698 13.8853 112.497 14.5455 112.309 15.3119C112.12 16.0783 112.12 16.7385 112.12 17.5049C112.12 18.177 112.214 18.9316 112.309 19.6036C112.497 20.37 112.686 20.9359 113.075 21.5136C113.452 22.0914 113.841 22.563 114.407 22.9403C114.985 23.3176 115.645 23.518 116.506 23.518C117.744 23.518 118.699 23.1407 119.465 22.4687C120.138 21.7966 120.609 20.8416 120.703 19.6036H125.762C125.384 22.1739 124.429 24.084 122.802 25.4281C121.175 26.7604 119.076 27.4324 116.506 27.4324C115.079 27.4324 113.735 27.1495 112.592 26.666C111.354 26.1944 110.399 25.5224 109.538 24.6617C108.677 23.801 108.017 22.7516 107.534 21.608C107.062 20.37 106.862 19.132 106.862 17.6936C106.862 16.1726 107.05 14.8285 107.534 13.5905C108.005 12.3525 108.583 11.2088 109.444 10.2538C110.304 9.2988 111.354 8.62675 112.497 8.06081C113.735 7.58919 115.068 7.29443 116.6 7.29443C117.744 7.29443 118.793 7.48308 119.843 7.76605C120.892 8.04902 121.847 8.53242 122.614 9.09836C123.474 9.67609 124.135 10.4307 124.618 11.3857C125.09 12.2464 125.384 13.3901 125.479 14.6281H120.326C120.126 12.3525 118.888 11.2088 116.6 11.2088Z" fill="white" fill-opacity="0.32"/>
<path d="M133.673 22.3744C134.439 23.1408 135.677 23.5181 137.104 23.5181C138.153 23.5181 139.108 23.2351 139.875 22.7517C140.641 22.174 141.113 21.608 141.301 21.0303H145.876C145.11 23.3176 143.966 24.9447 142.445 25.9941C140.924 26.9491 139.108 27.515 136.915 27.515C135.394 27.515 134.05 27.2321 132.812 26.7487C131.574 26.277 130.619 25.605 129.759 24.65C128.898 23.7893 128.238 22.7399 127.849 21.5019C127.377 20.2639 127.177 18.9316 127.177 17.3989C127.177 15.9722 127.365 14.6281 127.849 13.3901C128.32 12.1521 128.992 11.1028 129.853 10.1478C130.714 9.28708 131.763 8.52071 132.907 8.04909C134.145 7.57747 135.477 7.28271 136.915 7.28271C138.542 7.28271 139.969 7.56568 141.113 8.23774C142.351 8.90979 143.306 9.66437 144.072 10.808C144.839 11.8574 145.404 13.0954 145.794 14.4277C146.171 15.76 146.265 17.1984 146.171 18.7194H132.341C132.341 20.1814 132.907 21.608 133.673 22.3744ZM139.78 12.3526C139.108 11.6805 138.059 11.3032 136.821 11.3032C135.96 11.3032 135.3 11.4919 134.722 11.7749C134.145 12.0578 133.673 12.4469 133.39 12.8242C133.107 13.2015 132.812 13.6849 132.718 14.1565C132.624 14.6281 132.529 15.0172 132.529 15.3945H141.113C140.83 13.9797 140.346 13.0246 139.78 12.3526Z" fill="white" fill-opacity="0.32"/>
</g>
<defs>
<clipPath id="clip0_92_760">
<rect width="145.423" height="27" fill="white" transform="translate(0.783447 0.526855)"/>
</clipPath>
</defs>
</svg>
