<svg width="125" height="32" viewBox="0 0 125 32" fill="none" xmlns="http://www.w3.org/2000/svg">
<path d="M23.1186 11.0353C18.9211 11.0353 16.1958 14.1706 16.1958 17.7972C16.1958 21.5877 18.8122 24.5874 23.1186 24.5874C27.2612 24.5874 29.9868 21.3977 29.9868 17.7972C29.9868 14.035 27.3704 11.0353 23.1186 11.0353ZM23.0922 21.3975C20.9389 21.3975 19.9299 19.652 19.9299 17.7972C19.9299 15.9707 20.9388 14.2252 23.1184 14.2252C25.2716 14.2252 26.2522 15.9425 26.2522 17.7972C26.2522 19.652 25.2718 21.3975 23.0922 21.3975ZM14.4951 20.2755L12.6482 18.8611C11.7766 20.198 10.3858 21.0963 8.47734 21.0963C5.53345 21.0963 3.84339 18.7783 3.84339 15.7786C3.84339 12.8883 5.36985 10.4893 8.55836 10.4893C10.4123 10.4893 11.6658 11.3066 12.5111 12.6435L14.3773 11.2097C14.8069 10.8786 14.9038 10.2638 14.5851 9.8235C13.1608 7.85253 10.9423 7 8.53206 7C2.69911 7 0 11.363 0 15.7803C0 21.015 3.10742 24.5888 8.47747 24.5888C11.0392 24.5888 13.2999 23.6677 14.71 21.6544C15.0199 21.2123 14.9212 20.6031 14.4951 20.2755ZM39.7388 11.0352C37.8866 11.0352 36.4148 11.8261 35.4341 13.1066C35.406 12.7526 35.3514 12.3985 35.2704 12.0163C35.1066 11.5531 34.7528 11.3347 34.1806 11.3347H31.9974V24.2878H35.7317V18.1248C35.7317 15.5075 36.9852 14.2252 38.8391 14.2252C40.311 14.2252 41.128 15.0971 41.128 16.8971V24.2878H44.8623V17.0345C44.8641 13.0521 43.0101 11.0352 39.7388 11.0352ZM54.2783 21.297C54.0635 21.3586 53.8381 21.3992 53.611 21.3992C52.1127 21.3992 51.2675 20.5273 51.2675 18.6727V14.447H54.6075C55.1639 14.447 55.6163 13.9943 55.6163 13.4378V11.34H51.2693V9.48174C51.2693 8.92514 50.8167 8.47249 50.2604 8.47249H47.5368V18.5353C47.5368 22.2801 49.1848 24.5874 52.4789 24.5874C54.4069 24.5874 55.7573 23.7525 56.377 23.2682L55.4051 21.7269C55.1657 21.3517 54.7079 21.172 54.2783 21.297ZM63.7892 11.0352C61.7328 11.0352 60.1728 11.4192 58.6306 12.4743C58.127 12.8195 58.032 13.5258 58.4158 14.0014L59.4545 15.2889C60.8173 14.2251 61.9617 14.0067 63.298 14.0067C65.0428 14.0067 66.1873 14.9331 66.1873 16.9518V17.1156C65.1521 16.7334 63.9795 16.5431 62.6713 16.5431C58.9106 16.5431 57.3559 18.5616 57.3559 20.6332C57.3559 22.6516 58.6923 24.5874 62.0708 24.5874C64.2241 24.5874 65.6696 23.6574 66.5413 22.4579C66.5694 22.8119 66.5976 23.1659 66.6786 23.5481C66.7877 24.066 67.1961 24.2844 67.7684 24.2844H69.7033V17.1438C69.7051 12.8902 67.0868 11.0352 63.7892 11.0352ZM66.0516 19.407C65.8333 20.7985 64.7153 21.8606 62.6994 21.8606C61.5814 21.8606 60.819 21.4238 60.819 20.4427C60.819 19.407 61.5549 18.8892 63.2997 18.8892C64.3351 18.8892 65.1801 19.0248 66.0799 19.2432L66.0516 19.407ZM102.864 21.179H96.9764L103.079 14.4733C103.433 14.0911 103.57 13.7371 103.57 13.2192V12.3474L103.574 11.3346H93.515C92.8883 11.3346 92.5079 11.6886 92.5079 12.3421V14.4416H98.9414L92.8656 21.147C92.5117 21.5011 92.348 21.8552 92.348 22.3748V24.2876H103.875V22.188C103.871 21.5329 103.491 21.1788 102.864 21.1788L102.864 21.179ZM117.389 11.3348H114.533V17.5242C114.533 20.1415 113.361 21.3956 111.509 21.3956C110.092 21.3956 109.301 20.5237 109.301 18.7501V12.2119C109.301 11.7258 108.908 11.333 108.423 11.333H105.566V18.6145C105.566 22.5405 107.392 24.5873 110.609 24.5873C112.407 24.5873 113.824 23.7965 114.832 22.5423C114.861 22.8699 114.913 23.2504 114.996 23.578C115.131 24.0694 115.513 24.2861 116.086 24.2861H118.269V12.2119C118.267 11.7275 117.875 11.3348 117.389 11.3348ZM123.625 7.27836H120.902V23.2786C120.902 23.8351 121.354 24.2878 121.911 24.2878H124.635V8.28759C124.632 7.73099 124.182 7.27836 123.625 7.27836ZM84.1205 7.27131H80.6222L73.9986 24.2878H77.814L79.2594 20.2244H86.1822L87.6541 24.2878H91.5786L85.2895 8.062C85.1011 7.51774 84.6928 7.27131 84.1205 7.27131ZM80.2947 17.0345L82.7209 10.4892L85.147 17.0345H80.2947Z" fill="white" fill-opacity="0.32"/>
</svg>
