<svg width="125" height="19" viewBox="0 0 125 19" fill="none" xmlns="http://www.w3.org/2000/svg">
<path d="M23.2011 4.99448C19.0036 4.99448 16.2783 8.12982 16.2783 11.7565C16.2783 15.5469 18.8947 18.5466 23.2011 18.5466C27.3437 18.5466 30.0693 15.3569 30.0693 11.7565C30.0693 7.99421 27.4529 4.99448 23.2011 4.99448ZM23.1747 15.3567C21.0214 15.3567 20.0125 13.6112 20.0125 11.7565C20.0125 9.9299 21.0213 8.18441 23.2009 8.18441C25.3541 8.18441 26.3347 9.90174 26.3347 11.7565C26.3347 13.6112 25.3543 15.3567 23.1747 15.3567ZM14.5776 14.2347L12.7307 12.8203C11.8591 14.1572 10.4683 15.0555 8.55986 15.0555C5.61597 15.0555 3.92591 12.7375 3.92591 9.73782C3.92591 6.84752 5.45237 4.44853 8.64088 4.44853C10.4948 4.44853 11.7483 5.26581 12.5936 6.60268L14.4599 5.16892C14.8895 4.83779 14.9863 4.22306 14.6676 3.78272C13.2433 1.81176 11.0248 0.959229 8.61458 0.959229C2.78163 0.959229 0.0825195 5.32223 0.0825195 9.73956C0.0825195 14.9743 3.18994 18.5481 8.55999 18.5481C11.1217 18.5481 13.3824 17.6269 14.7925 15.6136C15.1024 15.1715 15.0037 14.5623 14.5776 14.2347ZM39.8213 4.99446C37.9691 4.99446 36.4973 5.78532 35.5166 7.06583C35.4885 6.71179 35.434 6.35775 35.3529 5.97554C35.1892 5.51229 34.8353 5.29388 34.2631 5.29388H32.0799V18.247H35.8142V12.084C35.8142 9.46668 37.0678 8.18443 38.9216 8.18443C40.3935 8.18443 41.2105 9.05631 41.2105 10.8564V18.247H44.9448V10.9937C44.9466 7.01136 43.0926 4.99446 39.8213 4.99446ZM54.3608 15.2562C54.146 15.3179 53.9206 15.3584 53.6935 15.3584C52.1952 15.3584 51.3501 14.4865 51.3501 12.6319V8.40625H54.69C55.2464 8.40625 55.6989 7.95358 55.6989 7.397V5.29921H51.3518V3.44097C51.3518 2.88437 50.8992 2.43172 50.3429 2.43172H47.6194V12.4946C47.6194 16.2394 49.2673 18.5466 52.5614 18.5466C54.4894 18.5466 55.8398 17.7117 56.4595 17.2274L55.4876 15.6861C55.2482 15.311 54.7904 15.1312 54.3608 15.2562ZM63.8717 4.99446C61.8153 4.99446 60.2553 5.37844 58.7131 6.4335C58.2095 6.77874 58.1145 7.48503 58.4983 7.96061L59.537 9.24817C60.8998 8.18431 62.0442 7.9659 63.3805 7.9659C65.1253 7.9659 66.2698 8.89236 66.2698 10.911V11.0748C65.2346 10.6926 64.062 10.5023 62.7539 10.5023C58.9931 10.5023 57.4384 12.5209 57.4384 14.5924C57.4384 16.6108 58.7748 18.5466 62.1534 18.5466C64.3067 18.5466 65.7521 17.6166 66.6238 16.4171C66.6519 16.7712 66.6801 17.1251 66.7611 17.5073C66.8703 18.0252 67.2787 18.2436 67.8509 18.2436H69.7858V11.103C69.7876 6.84943 67.1694 4.99446 63.8717 4.99446ZM66.1341 13.3662C65.9158 14.7578 64.7978 15.8199 62.7819 15.8199C61.6639 15.8199 60.9016 15.383 60.9016 14.402C60.9016 13.3663 61.6374 12.8484 63.3823 12.8484C64.4176 12.8484 65.2626 12.984 66.1624 13.2025L66.1341 13.3662ZM102.947 15.1382H97.059L103.162 8.43256C103.515 8.05035 103.652 7.69631 103.652 7.17847V6.3066L103.656 5.29381H93.5975C92.9708 5.29381 92.5904 5.64785 92.5904 6.30131V8.40087H99.0239L92.9482 15.1063C92.5942 15.4603 92.4305 15.8144 92.4305 16.334V18.2468H103.957V16.1473C103.953 15.4921 103.573 15.138 102.947 15.138L102.947 15.1382ZM117.472 5.29398H114.616V11.4834C114.616 14.1007 113.443 15.3548 111.591 15.3548C110.174 15.3548 109.384 14.4829 109.384 12.7093V6.17117C109.384 5.68504 108.991 5.29224 108.505 5.29224H105.648V12.5737C105.648 16.4997 107.475 18.5465 110.691 18.5465C112.489 18.5465 113.906 17.7557 114.915 16.5016C114.943 16.8292 114.996 17.2096 115.079 17.5373C115.214 18.0286 115.596 18.2453 116.169 18.2453H118.352V6.17109C118.349 5.68671 117.957 5.29398 117.472 5.29398ZM123.708 1.23759H120.984V17.2378C120.984 17.7944 121.437 18.247 121.994 18.247H124.717V2.24681C124.715 1.69022 124.265 1.23759 123.708 1.23759ZM84.203 1.23054H80.7048L74.0811 18.247H77.8965L79.3419 14.1837H86.2647L87.7366 18.247H91.6611L85.372 2.02122C85.1836 1.47697 84.7753 1.23054 84.203 1.23054ZM80.3772 10.9937L82.8034 4.44838L85.2295 10.9937H80.3772Z" fill="white" fill-opacity="0.32"/>
</svg>
