<svg width="169" height="33" viewBox="0 0 169 33" fill="none" xmlns="http://www.w3.org/2000/svg">
<path fill-rule="evenodd" clip-rule="evenodd" d="M134.296 9.23364C130.762 9.49051 127.276 9.90066 123.842 10.4557C123.818 10.4595 123.796 10.4687 123.776 10.4827C123.757 10.4966 123.741 10.5149 123.729 10.5361C123.718 10.5572 123.711 10.5807 123.711 10.6048C123.71 10.6288 123.714 10.6527 123.724 10.6746C125.303 14.1571 127.051 17.56 128.963 20.8711C130.877 24.1852 132.951 27.404 135.178 30.516C135.192 30.5355 135.211 30.5515 135.232 30.5628C135.254 30.5742 135.277 30.5805 135.301 30.5814C135.326 30.5823 135.35 30.5777 135.372 30.568C135.394 30.5583 135.413 30.5436 135.429 30.5253C136.467 29.2913 137.48 28.0368 138.467 26.7623C136.757 21.0002 135.365 15.1485 134.296 9.23364Z" fill="white" fill-opacity="0.32"/>
<path fill-rule="evenodd" clip-rule="evenodd" d="M168.694 9.43757C157.208 5.27523 145.305 2.37173 133.193 0.778093C133.169 0.774789 133.145 0.777028 133.122 0.784637C133.099 0.792245 133.079 0.805019 133.062 0.821965C133.044 0.83891 133.031 0.859572 133.024 0.882345C133.016 0.905117 133.013 0.929388 133.016 0.953271C133.371 3.70978 133.797 6.47051 134.297 9.23292C134.637 9.20934 134.978 9.18239 135.32 9.16133C140.111 8.85477 144.854 8.8413 149.531 9.09648C149.557 9.09787 149.583 9.10581 149.605 9.11959C149.627 9.13338 149.646 9.15255 149.659 9.17536C149.672 9.19816 149.679 9.22387 149.679 9.25012C149.68 9.27636 149.674 9.3023 149.662 9.32556C146.453 15.4574 142.706 21.2925 138.466 26.7624C139.051 28.734 139.67 30.6871 140.322 32.6224C140.33 32.6452 140.344 32.6659 140.361 32.683C140.378 32.7 140.399 32.713 140.421 32.7208C140.444 32.7287 140.469 32.7313 140.493 32.7284C140.517 32.7255 140.54 32.7172 140.56 32.7041C150.767 26.083 160.221 18.3671 168.753 9.6936C168.771 9.67493 168.784 9.65193 168.791 9.62673C168.799 9.60153 168.799 9.57494 168.793 9.54943C168.787 9.52391 168.775 9.50028 168.758 9.48073C168.74 9.46118 168.718 9.44634 168.694 9.43757Z" fill="white" fill-opacity="0.32"/>
<path fill-rule="evenodd" clip-rule="evenodd" d="M62.2575 15.5208C60.5243 15.5208 59.1616 16.3293 58.4222 17.9926V15.797H55.8333L55.8341 27.4429H58.4222V21.4119C58.4222 19.2172 59.6922 17.7846 61.6562 17.7846C63.1351 17.7846 64.0363 18.9401 64.0363 20.7887V27.4421H66.6016V20.4426C66.6016 17.5075 65.0991 15.5208 62.2575 15.5208Z" fill="white" fill-opacity="0.32"/>
<path fill-rule="evenodd" clip-rule="evenodd" d="M88.2475 17.4832C90.1188 17.4832 91.1809 18.7549 91.228 20.5109H85.1044C85.3823 18.6395 86.4915 17.4832 88.2475 17.4832ZM93.747 22.1515V21.7127C93.747 18.1073 91.8049 15.52 88.2475 15.52C84.7583 15.52 82.4473 18.0399 82.4473 21.6664C82.4473 25.2011 84.6429 27.7201 88.2475 27.7201C90.9501 27.7201 92.9848 26.2875 93.6544 23.7011H90.9973C90.5113 25.1329 89.3802 25.6854 88.202 25.6854C86.4452 25.6854 85.1735 24.3227 85.0345 22.2441V22.1515H93.747Z" fill="white" fill-opacity="0.32"/>
<path fill-rule="evenodd" clip-rule="evenodd" d="M101.59 20.5336C99.8112 20.1176 98.8856 19.9096 98.8856 18.8939C98.8856 18.0854 99.7177 17.4369 101.011 17.4369C102.537 17.4369 103.369 18.1536 103.577 19.5179H105.933C105.657 16.8827 103.946 15.52 101.035 15.52C98.4241 15.52 96.4365 16.5593 96.4365 19.0084C96.4365 21.551 98.4241 21.9443 100.827 22.5204C102.837 22.9827 103.6 23.1461 103.6 24.1618C103.6 25.34 102.606 25.7797 101.335 25.7797C99.6251 25.7797 98.6313 24.8314 98.4696 23.307H96.0676C96.2276 26.1022 98.1697 27.7201 101.336 27.7201C104.201 27.7201 106.073 26.5174 106.073 24.0456C106.073 21.4592 104.062 21.1114 101.59 20.5336Z" fill="white" fill-opacity="0.32"/>
<path fill-rule="evenodd" clip-rule="evenodd" d="M117.033 17.8754V15.7952H112.735V12.1931H110.148V13.763C110.148 15.2427 109.547 15.796 107.907 15.796H107.884V17.8763H110.149V23.583C110.149 26.0565 111.881 27.65 114.584 27.65C115.347 27.65 116.156 27.511 116.803 27.1649V24.9465C116.017 25.339 115.371 25.4325 114.84 25.4333C113.499 25.4333 112.735 24.6922 112.735 23.3531V17.8754H117.033Z" fill="white" fill-opacity="0.32"/>
<path fill-rule="evenodd" clip-rule="evenodd" d="M6.61258 17.4848C8.48226 17.4848 9.54512 18.7565 9.59228 20.5125H3.4695C3.74743 18.6411 4.8566 17.4848 6.61258 17.4848ZM12.1105 22.1522V21.7143C12.1105 18.108 10.1692 15.5208 6.61174 15.5208C3.12251 15.5208 0.811523 18.0406 0.811523 21.668C0.811523 25.2018 3.00629 27.7217 6.61174 27.7217C9.3152 27.7217 11.3491 26.2891 12.0187 23.7019H9.36152C8.87557 25.1336 7.74281 25.6869 6.56542 25.6869C4.80944 25.6869 3.53856 24.3242 3.3996 22.2449V22.1522H12.1105Z" fill="white" fill-opacity="0.32"/>
<path fill-rule="evenodd" clip-rule="evenodd" d="M23.5231 21.6907C23.5231 24.0008 22.1587 25.5496 20.0574 25.5496C18.0252 25.5496 16.6617 23.9545 16.6617 21.5753C16.6617 19.2643 18.0244 17.6927 20.0574 17.6927C22.136 17.6927 23.5012 19.2643 23.5231 21.5281V21.6907ZM23.4077 15.7969V17.6018H23.3858C22.8072 16.3301 21.3292 15.5679 19.6422 15.5679C16.292 15.5679 14.1418 18.0625 14.1418 21.5753C14.1418 25.1555 16.292 27.6753 19.6414 27.6753C21.3056 27.6745 22.7382 26.8424 23.3858 25.4578H23.4077V27.4429H25.973V15.7969H23.4077Z" fill="white" fill-opacity="0.32"/>
<path fill-rule="evenodd" clip-rule="evenodd" d="M34.3394 20.5344C32.559 20.1192 31.636 19.9103 31.636 18.8946C31.636 18.0861 32.4664 17.4384 33.7608 17.4384C35.286 17.4384 36.119 18.1543 36.3245 19.5187H38.6826C38.4055 16.8834 36.6959 15.5208 33.7827 15.5208C31.1727 15.5208 29.1852 16.56 29.1852 19.0091C29.1852 21.5517 31.1727 21.945 33.5764 22.5211C35.5859 22.9835 36.3489 23.1477 36.3489 24.1625C36.3489 25.3408 35.3551 25.7804 34.0851 25.7804C32.3754 25.7804 31.3816 24.8329 31.2199 23.3077H28.8154C28.9788 26.1038 30.9209 27.7208 34.0851 27.7208C36.9494 27.7208 38.8224 26.5182 38.8224 24.0463C38.8224 21.4599 36.8113 21.1129 34.3394 20.5344Z" fill="white" fill-opacity="0.32"/>
<path fill-rule="evenodd" clip-rule="evenodd" d="M76.2275 27.4436C76.8988 26.2696 78.2067 24.1574 79.0725 22.1748C80.1909 19.6078 81.3473 16.3771 81.5351 15.7969H78.7255C78.1511 18.0927 76.2705 23.0482 74.955 25.0594C73.6403 23.0482 71.7588 18.0927 71.1845 15.7969H68.3757C68.5627 16.378 69.719 19.6087 70.8383 22.1748C71.7033 24.1574 73.0112 26.2696 73.6833 27.4436H76.2275Z" fill="white" fill-opacity="0.32"/>
<path fill-rule="evenodd" clip-rule="evenodd" d="M53.2872 15.7969C53.027 17.0467 51.191 28.2353 43.815 32.731L43.7249 32.6425C43.1809 32.0251 42.6349 31.4094 42.0868 30.7956C43.4722 30.0612 44.8955 28.9166 45.8994 27.6171C45.0657 26.5206 43.3434 23.6731 42.5424 21.7984C41.328 18.945 40.5574 16.2348 40.5574 15.7969H43.3535C43.5337 17.5689 45.1642 22.0064 47.3767 25.2767C49.2463 22.0064 50.3707 17.3684 50.5265 15.7969H53.2872Z" fill="white" fill-opacity="0.32"/>
</svg>
