<svg width="170" height="32" viewBox="0 0 170 32" fill="none" xmlns="http://www.w3.org/2000/svg">
<g clip-path="url(#clip0_171_69)">
<path fill-rule="evenodd" clip-rule="evenodd" d="M62.1631 9.0603C60.4298 9.0603 59.0671 9.86881 58.3277 11.5322V9.33654H55.7388L55.7396 20.9825H58.3277V14.9515C58.3277 12.7567 59.5977 11.3241 61.5617 11.3241C63.0406 11.3241 63.9418 12.4796 63.9418 14.3283V20.9816H66.5071V13.9821C66.5071 11.047 65.0046 9.0603 62.1631 9.0603Z" fill="white" fill-opacity="0.32"/>
<path fill-rule="evenodd" clip-rule="evenodd" d="M88.153 11.0227C90.0244 11.0227 91.0864 12.2945 91.1335 14.0504H85.0099C85.2878 12.1791 86.397 11.0227 88.153 11.0227ZM93.6526 15.691V15.2523C93.6526 11.6468 91.7104 9.05957 88.153 9.05957C84.6638 9.05957 82.3528 11.5794 82.3528 15.2059C82.3528 18.7406 84.5484 21.2597 88.153 21.2597C90.8556 21.2597 92.8904 19.8271 93.5599 17.2407H90.9028C90.4168 18.6724 89.2858 19.2249 88.1075 19.2249C86.3507 19.2249 85.079 17.8622 84.94 15.7837V15.691H93.6526Z" fill="white" fill-opacity="0.32"/>
<path fill-rule="evenodd" clip-rule="evenodd" d="M101.495 14.0732C99.7167 13.6571 98.7911 13.4491 98.7911 12.4334C98.7911 11.6249 99.6232 10.9764 100.917 10.9764C102.443 10.9764 103.274 11.6931 103.482 13.0575H105.839C105.562 10.4222 103.851 9.05957 100.94 9.05957C98.3296 9.05957 96.342 10.0988 96.342 12.548C96.342 15.0906 98.3296 15.4839 100.732 16.0599C102.743 16.5223 103.506 16.6857 103.506 17.7014C103.506 18.8796 102.512 19.3192 101.24 19.3192C99.5306 19.3192 98.5368 18.3709 98.3751 16.8465H95.9731C96.1332 19.6418 98.0753 21.2597 101.241 21.2597C104.106 21.2597 105.978 20.057 105.978 17.5851C105.978 14.9988 103.967 14.6509 101.495 14.0732Z" fill="white" fill-opacity="0.32"/>
<path fill-rule="evenodd" clip-rule="evenodd" d="M116.939 11.415V9.33475H112.641V5.73267H110.054V7.30252C110.054 8.78227 109.452 9.33559 107.813 9.33559H107.789V11.4158H110.055V17.1226C110.055 19.5961 111.787 21.1895 114.49 21.1895C115.253 21.1895 116.062 21.0506 116.709 20.7044V18.4861C115.922 18.8785 115.276 18.972 114.746 18.9729C113.405 18.9729 112.64 18.2317 112.64 16.8926V11.415H116.939Z" fill="white" fill-opacity="0.32"/>
<path fill-rule="evenodd" clip-rule="evenodd" d="M6.5181 11.0243C8.38778 11.0243 9.45063 12.296 9.4978 14.052H3.37502C3.65294 12.1806 4.76212 11.0243 6.5181 11.0243ZM12.016 15.6918V15.2538C12.016 11.6475 10.0747 9.0603 6.51726 9.0603C3.02803 9.0603 0.717041 11.5802 0.717041 15.2075C0.717041 18.7414 2.91181 21.2612 6.51726 21.2612C9.22071 21.2612 11.2546 19.8286 11.9242 17.2414H9.26703C8.78109 18.6732 7.64833 19.2265 6.47094 19.2265C4.71495 19.2265 3.44408 17.8638 3.30512 15.7844V15.6918H12.016Z" fill="white" fill-opacity="0.32"/>
<path fill-rule="evenodd" clip-rule="evenodd" d="M23.4286 15.2302C23.4286 17.5404 22.0642 19.0892 19.963 19.0892C17.9307 19.0892 16.5672 17.494 16.5672 15.1148C16.5672 12.8038 17.9299 11.2323 19.963 11.2323C22.0415 11.2323 23.4067 12.8038 23.4286 15.0677V15.2302ZM23.3132 9.3365V11.1413H23.2913C22.7127 9.86961 21.2347 9.10742 19.5478 9.10742C16.1975 9.10742 14.0474 11.602 14.0474 15.1148C14.0474 18.695 16.1975 21.2149 19.5469 21.2149C21.2111 21.214 22.6437 20.3819 23.2913 18.9974H23.3132V20.9824H25.8786V9.3365H23.3132Z" fill="white" fill-opacity="0.32"/>
<path fill-rule="evenodd" clip-rule="evenodd" d="M34.2449 14.0739C32.4645 13.6587 31.5415 13.4498 31.5415 12.4341C31.5415 11.6256 32.3719 10.978 33.6663 10.978C35.1916 10.978 36.0245 11.6939 36.23 13.0582H38.5881C38.3111 10.423 36.6014 9.0603 33.6882 9.0603C31.0783 9.0603 29.0907 10.0996 29.0907 12.5487C29.0907 15.0913 31.0783 15.4846 33.4819 16.0607C35.4914 16.523 36.2544 16.6872 36.2544 17.7021C36.2544 18.8803 35.2606 19.32 33.9906 19.32C32.2809 19.32 31.2871 18.3725 31.1254 16.8473H28.7209C28.8843 19.6434 30.8264 21.2604 33.9906 21.2604C36.8549 21.2604 38.7279 20.0577 38.7279 17.5859C38.7279 14.9995 36.7168 14.6525 34.2449 14.0739Z" fill="white" fill-opacity="0.32"/>
<path fill-rule="evenodd" clip-rule="evenodd" d="M76.1331 20.9832C76.8043 19.8092 78.1122 17.6969 78.978 15.7144C80.0964 13.1474 81.2528 9.9167 81.4406 9.33643H78.631C78.0566 11.6323 76.176 16.5878 74.8605 18.5989C73.5458 16.5878 71.6644 11.6323 71.09 9.33643H68.2812C68.4682 9.91754 69.6246 13.1482 70.7438 15.7144C71.6088 17.6969 72.9167 19.8092 73.5888 20.9832H76.1331Z" fill="white" fill-opacity="0.32"/>
<path fill-rule="evenodd" clip-rule="evenodd" d="M53.1927 9.33643C52.9325 10.5862 51.0965 21.7748 43.7205 26.2705L43.6304 26.1821C43.0864 25.5646 42.5404 24.949 41.9923 24.3351C43.3777 23.6007 44.801 22.4562 45.8049 21.1567C44.9712 20.0601 43.2489 17.2127 42.4479 15.3379C41.2335 12.4846 40.4629 9.77437 40.4629 9.33643H43.259C43.4392 11.1084 45.0697 15.546 47.2822 18.8162C49.1518 15.546 50.2762 10.908 50.432 9.33643H53.1927Z" fill="white" fill-opacity="0.32"/>
<path fill-rule="evenodd" clip-rule="evenodd" d="M128.525 5.32764C124.991 5.58451 121.505 5.99466 118.071 6.54967C118.047 6.55349 118.025 6.56273 118.005 6.57667C117.986 6.59061 117.97 6.60888 117.958 6.63005C117.947 6.65122 117.94 6.67474 117.94 6.69877C117.939 6.7228 117.943 6.74671 117.953 6.76864C119.532 10.2511 121.28 13.654 123.192 16.9651C125.106 20.2792 127.18 23.498 129.407 26.61C129.421 26.6295 129.44 26.6455 129.461 26.6568C129.483 26.6682 129.506 26.6745 129.53 26.6754C129.555 26.6763 129.579 26.6717 129.601 26.662C129.623 26.6523 129.642 26.6376 129.658 26.6192C130.696 25.3853 131.709 24.1308 132.696 22.8563C130.986 17.0942 129.594 11.2425 128.525 5.32764Z" fill="white" fill-opacity="0.32"/>
<path fill-rule="evenodd" clip-rule="evenodd" d="M169.375 8.68611C157.889 4.52376 145.986 1.62027 133.874 0.0266284C133.85 0.023324 133.826 0.0255633 133.803 0.0331719C133.78 0.0407805 133.76 0.0535542 133.742 0.0704998C133.725 0.0874454 133.712 0.108107 133.705 0.13088C133.697 0.153653 133.694 0.177923 133.697 0.201806C134.052 2.95832 134.478 5.71904 134.977 8.48145C135.318 8.45787 135.659 8.43092 136.001 8.40987C140.792 8.10331 145.534 8.08983 150.212 8.34502C150.238 8.3464 150.264 8.35435 150.286 8.36813C150.308 8.38191 150.327 8.40109 150.34 8.42389C150.353 8.4467 150.36 8.47241 150.36 8.49865C150.361 8.5249 150.355 8.55084 150.343 8.5741C147.134 14.7059 143.387 20.5411 139.147 26.011C139.732 27.9825 140.351 29.9356 141.003 31.871C141.011 31.8938 141.024 31.9145 141.042 31.9315C141.059 31.9486 141.079 31.9615 141.102 31.9694C141.125 31.9772 141.15 31.9798 141.174 31.9769C141.198 31.974 141.221 31.9657 141.241 31.9527C151.448 25.3316 160.902 17.6156 169.433 8.94214C169.452 8.92346 169.465 8.90046 169.472 8.87526C169.479 8.85006 169.48 8.82348 169.474 8.79796C169.468 8.77244 169.456 8.74882 169.439 8.72927C169.421 8.70972 169.399 8.69488 169.375 8.68611Z" fill="white" fill-opacity="0.32"/>
</g>
<defs>
<clipPath id="clip0_171_69">
<rect width="170" height="32" fill="white"/>
</clipPath>
</defs>
</svg>
