<svg width="142" height="21" viewBox="0 0 142 21" fill="none" xmlns="http://www.w3.org/2000/svg">
<g clip-path="url(#clip0_92_811)">
<path fill-rule="evenodd" clip-rule="evenodd" d="M2.14281 0.562012C1.82732 0.562012 1.52475 0.685697 1.30166 0.90586C1.07857 1.12602 0.953247 1.42462 0.953247 1.73597V18.0422C0.953247 18.3536 1.07857 18.6522 1.30166 18.8723C1.52475 19.0925 1.82732 19.2162 2.14281 19.2162H5.71148V0.562012H2.14281Z" fill="white" fill-opacity="0.32"/>
<path fill-rule="evenodd" clip-rule="evenodd" d="M48.7498 19.2159L52.9846 12.043C53.0948 11.8661 53.2485 11.7194 53.4316 11.6168C53.6146 11.5142 53.8209 11.4589 54.0314 11.4561H60.4728L56.125 18.7991C56.0373 18.9244 55.9199 19.0268 55.7831 19.0973C55.6463 19.1679 55.4942 19.2045 55.3399 19.2041L48.7498 19.2159Z" fill="white" fill-opacity="0.32"/>
<path fill-rule="evenodd" clip-rule="evenodd" d="M76.1093 19.2509H69.644C69.4722 19.2509 69.3024 19.2142 69.1464 19.1433C68.9903 19.0724 68.8517 18.9689 68.7399 18.8401L68.5199 18.4702L58.0934 0.561523H64.7133C65.0201 0.605133 65.2975 0.765192 65.4865 1.00763L65.6412 1.28351L76.1093 19.2509Z" fill="white" fill-opacity="0.32"/>
<path fill-rule="evenodd" clip-rule="evenodd" d="M113.712 19.2159L117.947 12.043C118.057 11.8661 118.211 11.7194 118.394 11.6168C118.577 11.5142 118.783 11.4589 118.994 11.4561H125.447L121.087 18.8285C121 18.9545 120.883 19.0574 120.746 19.128C120.609 19.1987 120.457 19.2348 120.302 19.2334L113.712 19.2159Z" fill="white" fill-opacity="0.32"/>
<path fill-rule="evenodd" clip-rule="evenodd" d="M141.078 19.2509H134.606C134.435 19.2509 134.265 19.2142 134.109 19.1433C133.952 19.0724 133.814 18.9689 133.703 18.8401L133.488 18.4702L123.062 0.561523H129.682C129.99 0.603676 130.271 0.763877 130.461 1.00763L130.622 1.28351L141.078 19.2509Z" fill="white" fill-opacity="0.32"/>
<path fill-rule="evenodd" clip-rule="evenodd" d="M45.6037 0.561576H34.3029V19.2158H38.0024C38.2735 19.1877 38.5265 19.0686 38.7192 18.8784C38.9119 18.6881 39.0326 18.4385 39.061 18.1709V13.4164H45.6037C46.5113 13.5021 47.427 13.3996 48.2921 13.1156C49.1572 12.8316 49.9525 12.3722 50.6272 11.7671C51.3019 11.1619 51.841 10.4242 52.2099 9.60145C52.5788 8.77857 52.7694 7.88877 52.7694 6.989C52.7694 6.08924 52.5788 5.1994 52.2099 4.37657C51.841 3.55374 51.3019 2.81608 50.6272 2.21091C49.9525 1.60573 49.1572 1.14639 48.2921 0.862368C47.427 0.578339 46.5113 0.475884 45.6037 0.561576ZM45.6037 8.69711H39.061V5.31611H45.6037C46.0588 5.31611 46.4952 5.49452 46.817 5.81211C47.1388 6.12969 47.3196 6.56042 47.3196 7.00954C47.3196 7.45867 47.1388 7.8894 46.817 8.20698C46.4952 8.52457 46.0588 8.70298 45.6037 8.70298V8.69711Z" fill="white" fill-opacity="0.32"/>
<path fill-rule="evenodd" clip-rule="evenodd" d="M24.9285 0.561547C24.6967 0.562389 24.4702 0.630061 24.2769 0.756242C24.0835 0.882423 23.9317 1.06162 23.8401 1.27179L20.5807 10.6634C20.5416 10.7809 20.4659 10.8832 20.3645 10.9556C20.263 11.0281 20.1409 11.0672 20.0157 11.0672C19.8904 11.0672 19.7684 11.0281 19.6669 10.9556C19.5654 10.8832 19.4898 10.7809 19.4506 10.6634L16.1972 1.27179C16.1048 1.05978 15.9512 0.87933 15.7555 0.753008C15.5598 0.626686 15.3307 0.56009 15.0969 0.561547H8.09033V19.2157H12.8486C12.8486 19.2157 12.8486 8.90249 12.8486 8.87318C12.8281 8.7175 12.8711 8.56015 12.9681 8.43577C13.0652 8.31138 13.2083 8.23012 13.366 8.20988C13.5238 8.18964 13.6832 8.23208 13.8092 8.32784C13.9353 8.42362 14.0177 8.56488 14.0382 8.72056L17.3868 18.347C17.4547 18.5962 17.6041 18.8163 17.8115 18.9734C18.019 19.1304 18.2732 19.2156 18.5347 19.2157H21.5562C21.8186 19.2168 22.0742 19.1323 22.2829 18.9752C22.4916 18.8181 22.6418 18.5972 22.71 18.347L26.0586 8.72056C26.0791 8.56488 26.1614 8.42362 26.2876 8.32784C26.4136 8.23208 26.573 8.18964 26.7308 8.20988C26.8885 8.23012 27.0316 8.31138 27.1287 8.43577C27.2257 8.56015 27.2687 8.7175 27.2482 8.87318V19.2157H32.0065V0.561547H24.9285Z" fill="white" fill-opacity="0.32"/>
<path fill-rule="evenodd" clip-rule="evenodd" d="M108.888 19.2157H106.437V5.84434C106.437 5.68866 106.375 5.53936 106.263 5.42928C106.152 5.3192 106 5.25736 105.842 5.25736H99.3713V1.73548C99.3713 1.42413 99.4966 1.12553 99.7199 0.905367C99.9423 0.685209 100.245 0.561523 100.561 0.561523H117.214C117.53 0.561523 117.833 0.685209 118.056 0.905367C118.278 1.12553 118.404 1.42413 118.404 1.73548V5.25736H111.927C111.769 5.25736 111.618 5.3192 111.506 5.42928C111.395 5.53936 111.332 5.68866 111.332 5.84434V19.2157H108.888Z" fill="white" fill-opacity="0.32"/>
<path fill-rule="evenodd" clip-rule="evenodd" d="M97.35 12.2364H92.3888C92.2005 12.2373 92.0148 12.2825 91.8467 12.3682C91.6794 12.454 91.5349 12.5778 91.4254 12.7295C90.9849 13.2937 90.4191 13.7507 89.7719 14.0651C89.1239 14.3795 88.4119 14.5431 87.6904 14.5433H85.3113C84.6805 14.5654 84.0517 14.462 83.4624 14.239C82.8731 14.0161 82.3354 13.6783 81.8812 13.2458C81.4271 12.8134 81.0658 12.2949 80.8191 11.7216C80.5725 11.1484 80.4454 10.5319 80.4454 9.9091C80.4454 9.28623 80.5725 8.66977 80.8191 8.09648C81.0658 7.52319 81.4271 7.00482 81.8812 6.57232C82.3354 6.1398 82.8731 5.80201 83.4624 5.5791C84.0517 5.35619 84.6805 5.25272 85.3113 5.27487H87.6904C88.4084 5.2793 89.116 5.44552 89.7597 5.76086C90.4025 6.07621 90.9647 6.53236 91.4018 7.09451C91.5112 7.24623 91.6557 7.37007 91.823 7.45581C91.9912 7.54154 92.1768 7.58671 92.3651 7.58757H97.35C97.4236 7.59116 97.498 7.57731 97.5655 7.54715C97.6338 7.51699 97.6933 7.47139 97.7398 7.41409C97.7862 7.35679 97.8177 7.28943 97.8326 7.21755C97.8475 7.14566 97.8457 7.07131 97.8256 7.00059C97.8256 6.97125 97.7722 6.77754 97.7485 6.71884C97.082 4.92592 95.8735 3.37855 94.2857 2.28654C92.6979 1.19452 90.8089 0.610716 88.8743 0.614263H84.1157C82.859 0.583093 81.6086 0.800458 80.4383 1.25355C79.268 1.70665 78.2014 2.38631 77.3014 3.2525C76.4014 4.11868 75.686 5.15388 75.1977 6.29709C74.7093 7.4403 74.4578 8.66841 74.4578 9.9091C74.4578 11.1497 74.7093 12.3779 75.1977 13.521C75.686 14.6642 76.4014 15.6994 77.3014 16.5656C78.2014 17.4318 79.268 18.1115 80.4383 18.5646C81.6086 19.0177 82.859 19.235 84.1157 19.2039H88.8743C90.8097 19.2062 92.6988 18.6204 94.2857 17.5261C95.8726 16.4319 97.0794 14.8822 97.7424 13.0875C97.7424 13.0288 97.8133 12.8352 97.8195 12.8058C97.8361 12.7368 97.8361 12.6649 97.8195 12.5958C97.8037 12.5267 97.7722 12.4621 97.7266 12.4072C97.6811 12.3521 97.6233 12.3081 97.5585 12.2786C97.4928 12.249 97.4218 12.2346 97.35 12.2364Z" fill="white" fill-opacity="0.32"/>
</g>
<defs>
<clipPath id="clip0_92_811">
<rect width="141" height="20" fill="white" transform="translate(0.146729 0.0268555)"/>
</clipPath>
</defs>
</svg>
