<svg width="137" height="32" viewBox="0 0 137 32" fill="none" xmlns="http://www.w3.org/2000/svg">
<g clip-path="url(#clip0_179_39)">
<path fill-rule="evenodd" clip-rule="evenodd" d="M13.9845 19.5987C13.9265 19.5904 13.8686 19.5804 13.8109 19.5688C13.2017 19.4458 12.6427 19.1446 12.2048 18.7034C12.1178 18.7294 12.0295 18.7519 11.9401 18.771L8.88258 19.4119C10.3614 19.8647 11.668 20.7557 12.6296 21.9671C14.2751 24.0342 14.7288 26.7766 13.8813 29.2815C17.8052 28.5252 20.9189 25.8038 21.853 22.3356C21.3885 22.466 20.8128 22.5372 20.1953 22.5372C19.9557 22.5372 19.7095 22.5266 19.4613 22.5041C18.1354 22.3848 15.6875 21.8463 13.9845 19.5987ZM15.0667 19.5659C16.5391 21.1508 18.4556 21.5605 19.5379 21.6566C20.7774 21.7682 21.7038 21.5581 22.056 21.3498C22.1121 20.9593 22.1411 20.5613 22.1411 20.1575V6.865C22.1456 6.56191 22.0898 6.26096 21.9769 5.97964C21.864 5.69833 21.6963 5.44227 21.4835 5.22635C21.2708 5.01043 21.0172 4.83897 20.7376 4.72194C20.458 4.6049 20.1579 4.54463 19.8548 4.54463C19.5517 4.54463 19.2516 4.6049 18.972 4.72194C18.6924 4.83897 18.4388 5.01043 18.2261 5.22635C18.0133 5.44227 17.8456 5.69833 17.7327 5.97964C17.6199 6.26096 17.564 6.56191 17.5685 6.865V11.4692C17.5691 11.4928 17.5694 11.5164 17.5694 11.5401V16.4934C17.5694 17.115 17.3847 17.7225 17.0389 18.239C16.6931 18.7554 16.2016 19.1575 15.6269 19.3943C15.4451 19.4692 15.2575 19.5265 15.0667 19.5659ZM0.340819 20.1575V4.83056C0.335574 4.41522 0.412853 4.00297 0.568167 3.61773C0.723481 3.23249 0.953743 2.88192 1.2456 2.58636C1.53745 2.2908 1.88507 2.05613 2.26832 1.89596C2.65157 1.73579 3.06281 1.65332 3.47819 1.65332C3.89356 1.65332 4.3048 1.73579 4.68805 1.89596C5.0713 2.05613 5.41893 2.2908 5.71078 2.58636C6.00263 2.88192 6.23289 3.23249 6.3882 3.61773C6.54352 4.00297 6.62079 4.41522 6.61555 4.83056V9.39413C6.90845 9.0811 7.26256 8.8316 7.65589 8.6611C8.04922 8.49059 8.4734 8.40273 8.90209 8.40297H9.01017C9.55924 8.40204 10.099 8.54469 10.5759 8.81677C11.0529 9.08884 11.4504 9.48089 11.729 9.95401C12.078 9.36131 12.6121 8.89972 13.2491 8.6403C13.8861 8.38087 14.5907 8.33799 15.2545 8.51825C15.8161 8.67076 16.3221 8.97586 16.7179 9.39687V6.865C16.7284 6.03978 17.0635 5.25189 17.6507 4.67203C18.238 4.09216 19.03 3.767 19.8553 3.767C20.6806 3.767 21.4726 4.09216 22.0599 4.67203C22.6471 5.25189 22.9822 6.03978 22.9927 6.865V20.1595C22.9927 22.8893 21.8084 25.4525 19.6579 27.3778C17.5225 29.2916 14.6836 30.3423 11.665 30.3423C8.64799 30.3423 5.81108 29.2886 3.67264 27.3758C1.52119 25.4505 0.337891 22.8873 0.337891 20.1575H0.340819ZM12.9189 29.4252C13.8765 27.0839 13.5196 24.4483 11.9652 22.4945C10.6608 20.8549 8.69395 19.9152 6.56752 19.9152H6.5445C6.43606 19.9153 6.33146 19.8751 6.25096 19.8024C6.17046 19.7298 6.11979 19.6298 6.10876 19.5219C6.09774 19.4141 6.12714 19.3059 6.19128 19.2185C6.25542 19.131 6.34973 19.0705 6.45594 19.0486L11.7655 17.9384C12.0594 17.8769 12.3383 17.7581 12.5862 17.5888C12.8342 17.4195 13.0463 17.203 13.2106 16.9517C13.3748 16.7003 13.4879 16.4191 13.5435 16.1241C13.599 15.829 13.5959 15.5259 13.5342 15.2321L13.5092 15.113C13.3841 14.5199 13.0287 14.0006 12.5211 13.6692C12.0136 13.3378 11.3952 13.2213 10.8019 13.3453L4.52864 14.6617H4.51914C1.43106 15.1705 1.1914 18.3872 1.1914 19.3614V20.1579H1.18846C1.19123 25.3067 5.89029 29.4918 11.665 29.4918C12.0893 29.4918 12.5077 29.4692 12.9189 29.4252ZM14.2106 18.7695C13.7861 18.7282 13.3817 18.5691 13.0429 18.3101L13.0419 18.3086C13.5611 17.9598 13.9644 17.4639 14.2003 16.8846C14.4362 16.3053 14.494 15.6688 14.3663 15.0564L14.3413 14.9374C14.2239 14.3809 13.9577 13.8668 13.5711 13.4498C13.1844 13.0328 12.6918 12.7287 12.1458 12.5698V11.5406C12.1458 10.9341 12.3867 10.3526 12.8155 9.92375C13.2443 9.49494 13.8259 9.25404 14.4323 9.25404C15.0388 9.25404 15.6203 9.49494 16.0491 9.92375C16.4626 10.3372 16.7013 10.8926 16.7179 11.4754V12.6584H16.7189V16.4939C16.7187 16.9204 16.5994 17.3383 16.3742 17.7005C16.1491 18.0627 15.8272 18.3547 15.4449 18.5436C15.0626 18.7325 14.635 18.8107 14.2106 18.7695ZM1.86166 3.21514C2.29022 2.78648 2.8713 2.54531 3.47743 2.54452V2.54401C4.08366 2.54468 4.66487 2.78579 5.09353 3.21446C5.5222 3.64313 5.76332 4.22433 5.76398 4.83056V13.5329L4.37154 13.8251C2.9786 14.0573 1.88536 14.7953 1.1914 15.9671V4.83106C1.19206 4.22492 1.4331 3.64379 1.86166 3.21514ZM7.28549 9.92448C7.71416 9.49582 8.29537 9.2547 8.90159 9.25404H9.00967C10.2705 9.25404 11.2962 10.2587 11.2962 11.494V12.4447C11.0713 12.4429 10.8468 12.4654 10.6268 12.5117L6.61505 13.3543V11.5406C6.61572 10.9344 6.85683 10.3531 7.28549 9.92448Z" fill="white" fill-opacity="0.32"/>
<path fill-rule="evenodd" clip-rule="evenodd" d="M59.2516 6.48535H62.1657V19.6474C62.0308 23.1285 60.313 25.8793 55.6164 25.8793C52.6355 25.8793 48.835 23.9845 48.835 19.2076C48.835 15.2682 51.2985 12.4455 55.3764 12.4455C56.9335 12.4455 58.2265 12.8136 59.2516 13.4483V6.48535ZM55.654 23.2276C58.4196 23.2276 59.3549 21.4214 59.3549 19.1932C59.3549 16.9651 58.0603 15.1152 55.5234 15.1152C53.2221 15.1152 51.8319 16.8175 51.8319 19.1932C51.8319 22.074 53.9717 23.2276 55.654 23.2276Z" fill="white" fill-opacity="0.32"/>
<path d="M33.8391 8.76009C33.8391 9.98811 32.9385 10.9705 31.6286 10.9705C30.3188 10.9705 29.4182 9.98811 29.4182 8.76009C29.4182 7.53207 30.3188 6.54966 31.6286 6.54966C32.9385 6.54966 33.8391 7.53207 33.8391 8.76009Z" fill="white" fill-opacity="0.32"/>
<path d="M33.1023 25.5157V12.7989H30.155V25.5157H33.1023Z" fill="white" fill-opacity="0.32"/>
<path d="M38.5487 25.5157H35.5742V12.7989H38.5487V14.5727C39.3401 13.2082 40.8137 12.4714 42.6967 12.4714C45.7531 12.4714 47.3359 14.1906 47.3359 17.5199V25.5157H44.3613V18.8844C44.3613 16.1828 43.6518 15.0093 41.5778 15.0093C39.6403 15.0093 38.5487 16.2919 38.5487 18.5296V25.5157Z" fill="white" fill-opacity="0.32"/>
<path d="M112.44 25.5157H109.465V12.7989H112.44V14.5727C113.231 13.2082 114.705 12.4714 116.588 12.4714C119.644 12.4714 121.227 14.1906 121.227 17.5199V25.5157H118.252V18.8844C118.252 16.1828 117.543 15.0093 115.469 15.0093C113.531 15.0093 112.44 16.2919 112.44 18.5296V25.5157Z" fill="white" fill-opacity="0.32"/>
<path fill-rule="evenodd" clip-rule="evenodd" d="M136.049 6.48535H133.135V13.4483C132.11 12.8136 130.817 12.4455 129.259 12.4455C125.182 12.4455 122.718 15.2682 122.718 19.2076C122.718 23.9845 126.51 25.8973 129.491 25.8973C134.187 25.8973 135.905 23.1465 136.04 19.6654L136.049 19.6474V6.48535ZM133.238 19.1932C133.238 21.4214 132.303 23.2276 129.537 23.2276C127.855 23.2276 125.715 22.074 125.715 19.1932C125.715 16.8175 127.105 15.1152 129.407 15.1152C131.943 15.1152 133.238 16.9651 133.238 19.1932Z" fill="white" fill-opacity="0.32"/>
<path fill-rule="evenodd" clip-rule="evenodd" d="M78.855 6.48535H81.7691V13.4483C82.7942 12.8136 84.0872 12.4455 85.6443 12.4455C89.7222 12.4455 92.1856 15.2682 92.1856 19.2076C92.1856 23.9845 88.3939 25.8973 85.413 25.8973C80.7165 25.8973 78.9987 23.1465 78.8637 19.6654L78.855 19.6474V6.48535ZM81.6658 19.1932C81.6658 21.4214 82.6011 23.2276 85.3667 23.2276C87.049 23.2276 89.1888 22.074 89.1888 19.1932C89.1888 16.8175 87.7986 15.1152 85.4973 15.1152C82.9604 15.1152 81.6658 16.9651 81.6658 19.1932Z" fill="white" fill-opacity="0.32"/>
<path fill-rule="evenodd" clip-rule="evenodd" d="M77.1549 25.4484H74.2407V24.0554V23.2826C74.0891 23.9165 73.0338 25.4484 70.3655 25.4484C66.2877 25.4484 63.8242 22.6257 63.8242 18.6863C63.8242 13.9094 67.5317 12.1901 70.5126 12.1901C75.2091 12.1901 77.0112 14.7474 77.1461 18.2285L77.1549 18.2465V25.4484ZM74.3441 18.7007C74.3441 16.4725 73.4088 14.6663 70.6431 14.6663C68.9609 14.6663 66.821 15.8198 66.821 18.7007C66.821 21.0764 68.2113 22.7787 70.5126 22.7787C73.0494 22.7787 74.3441 20.9288 74.3441 18.7007Z" fill="white" fill-opacity="0.32"/>
<path fill-rule="evenodd" clip-rule="evenodd" d="M104.165 25.4484H107.079V18.2465L107.071 18.2285C106.936 14.7474 105.264 12.2429 100.568 12.2429C97.5866 12.2429 93.7486 13.9094 93.7486 18.6863C93.7486 22.6257 96.212 25.4484 100.29 25.4484C102.958 25.4484 103.775 23.9693 104.15 23.2826L104.165 25.4484ZM100.568 14.6663C103.333 14.6663 104.268 16.4725 104.268 18.7007C104.268 20.9288 102.974 22.7787 100.437 22.7787C98.1356 22.7787 96.7454 21.0764 96.7454 18.7007C96.7454 15.8198 98.8853 14.6663 100.568 14.6663Z" fill="white" fill-opacity="0.32"/>
</g>
<defs>
<clipPath id="clip0_179_39">
<rect width="137" height="32" fill="white"/>
</clipPath>
</defs>
</svg>
