<svg width="106" height="34" viewBox="0 0 106 34" fill="none" xmlns="http://www.w3.org/2000/svg">
<g opacity="0.32">
<path d="M0.206299 0.925293H5.17935V33.721H0.206299V0.925293Z" fill="white"/>
<path d="M50.4016 0.925293H61.8725C66.2004 0.925293 69.7489 2.85986 71.8667 6.45317C73.4786 9.21774 73.6161 10.4607 73.6161 17.3225C73.6161 24.6943 73.2474 25.9846 71.7741 28.2869C69.8405 31.3273 66.4304 33.721 61.549 33.721H50.4016V0.925293ZM55.3766 29.0237H61.3187C64.1271 29.0237 66.1088 28.0572 67.3982 26.1685C68.5043 24.5107 68.6418 23.5884 68.6418 17.5086C68.6418 11.612 68.5043 10.1846 67.1675 8.38742C65.6475 6.31256 63.9897 5.62412 61.3187 5.62412H55.3766V29.0237Z" fill="white"/>
<path d="M97.3618 26.3976H84.9237L82.3901 33.721H77.1375L89.0706 0.925293H93.2165L105.147 33.721H99.896L97.3618 26.3976ZM95.9334 21.9768L91.1903 7.64967H91.0968L86.3512 21.9768H95.9334Z" fill="white"/>
<path d="M28.3544 7.48261C28.0709 7.76607 27.6071 7.76607 27.323 7.48261L24.3679 4.52653C24.0844 4.24307 24.0844 3.77923 24.3679 3.49609L27.323 0.540001C27.6074 0.2575 28.0712 0.2575 28.3544 0.540001L31.3105 3.49609C31.593 3.77923 31.593 4.24307 31.3105 4.52653L28.3544 7.48261Z" fill="#ACACAC"/>
<path d="M13.3266 8.92383C13.3257 8.98236 13.3257 9.04313 13.3266 9.09785V8.92383Z" fill="#55C4C4"/>
<path d="M17.4358 33.7246C17.5497 33.7246 17.654 33.7256 17.753 33.7246H17.4358Z" fill="#55C4C4"/>
<path d="M37.4497 4.82608C37.462 4.81862 37.4721 4.80824 37.4854 4.80176C37.473 4.80824 37.4617 4.81862 37.4497 4.82608Z" fill="#55C4C4"/>
<path d="M18.0404 33.6855C17.9946 33.6986 17.9488 33.7113 17.8982 33.7161C17.9469 33.711 17.9952 33.6986 18.0404 33.6855Z" fill="#55C4C4"/>
<path d="M13.3265 29.271C13.3246 29.3699 13.3256 29.4746 13.3265 29.5891V29.271Z" fill="#55C4C4"/>
<path d="M37.5696 33.6719C37.6437 33.6996 37.7236 33.7158 37.8072 33.7202C37.7239 33.7177 37.644 33.7021 37.5696 33.6719Z" fill="#55C4C4"/>
<path d="M18.352 33.5181C18.296 33.5728 18.2282 33.6151 18.157 33.6498C18.2228 33.6205 18.2877 33.575 18.352 33.5181Z" fill="#55C4C4"/>
<path d="M42.3484 29.2251V29.6158C42.3484 29.4691 42.3532 29.3444 42.3484 29.2251Z" fill="#55C4C4"/>
<path d="M38.2388 33.7246H37.8755C37.9859 33.7275 38.1039 33.7246 38.2388 33.7246Z" fill="#55C4C4"/>
<path d="M37.1067 33.0086V29.199C37.1067 28.8048 37.4293 28.4825 37.8244 28.4825H41.6321C41.9264 28.4825 42.1815 28.6632 42.2913 28.9213C42.2566 28.8363 42.2099 28.7523 42.1256 28.6699L33.1889 19.7294C32.9045 19.4457 32.9045 18.9818 33.1889 18.699L42.0568 9.82533C42.0788 9.80338 42.0899 9.77856 42.109 9.75566C41.9818 9.87114 41.8173 9.94654 41.6334 9.94654H37.8247C37.4296 9.94654 37.107 9.62395 37.107 9.23042V5.41983C37.107 5.23181 37.184 5.06065 37.3058 4.93213C37.2922 4.94485 37.2766 4.94931 37.2635 4.96394L28.3514 13.8624C28.0698 14.1456 27.605 14.1456 27.3216 13.8624L18.4068 4.96935C18.3986 4.9614 18.3897 4.95949 18.382 4.95217C18.494 5.07847 18.5672 5.24008 18.5678 5.41983L18.5688 9.23042C18.5688 9.62395 18.2459 9.94654 17.8517 9.94654H14.0437C13.8579 9.94654 13.6896 9.87019 13.5614 9.75312C13.568 9.75884 13.5706 9.76616 13.5763 9.77157L22.4856 18.6993C22.7697 18.9825 22.7697 19.4463 22.4856 19.7298L13.5588 28.6588C13.4745 28.7415 13.4262 28.8255 13.3899 28.9101C13.5025 28.6588 13.7532 28.4825 14.0437 28.4825H17.8517C18.2459 28.4825 18.5675 28.8048 18.5685 29.199L18.5694 33.0086C18.5694 33.2046 18.4886 33.3837 18.3601 33.5129C18.3712 33.502 18.3849 33.4982 18.397 33.4855L27.3219 24.566C27.6053 24.2826 28.0701 24.2826 28.3517 24.566L37.2864 33.4963C37.3707 33.5806 37.4541 33.629 37.5393 33.6649C37.2864 33.5529 37.1067 33.3 37.1067 33.0086Z" fill="#ACACAC"/>
<path d="M42.2917 28.9214C42.3274 29.0038 42.3458 29.0964 42.3468 29.1918C42.342 29.0973 42.3264 29.0073 42.2917 28.9214Z" fill="#55C4C4"/>
<path d="M13.3743 28.9639C13.3533 29.0313 13.3377 29.1003 13.3333 29.1735C13.3339 29.0991 13.3511 29.0297 13.3743 28.9639Z" fill="#55C4C4"/>
<path d="M17.8515 4.70459H14.0434C13.6492 4.70459 13.3267 5.02749 13.3267 5.41975V9.23035C13.3267 9.62388 13.6496 9.94647 14.0434 9.94647H17.8521C18.2463 9.94647 18.5692 9.62388 18.5692 9.23035L18.5682 5.41975C18.5676 5.02718 18.2459 4.70459 17.8515 4.70459Z" fill="white"/>
<path d="M41.6321 4.70459H37.8244C37.4293 4.70459 37.1067 5.02749 37.1067 5.41975V9.23035C37.1067 9.62388 37.4293 9.94647 37.8244 9.94647H41.6331C42.0272 9.94647 42.3482 9.62388 42.3482 9.23035V5.41975C42.3463 5.02718 42.0257 4.70459 41.6321 4.70459Z" fill="white"/>
<path d="M17.8515 28.4824H14.0434C13.6492 28.4824 13.3267 28.8047 13.3267 29.1989V33.0085C13.3267 33.4008 13.6496 33.7246 14.0434 33.7246H17.8521C18.2463 33.7246 18.5692 33.4008 18.5692 33.0085L18.5682 29.1989C18.5676 28.8047 18.2459 28.4824 17.8515 28.4824Z" fill="white"/>
<path d="M41.6321 28.4824H37.8244C37.4293 28.4824 37.1067 28.8047 37.1067 29.1989V33.0085C37.1067 33.4008 37.4293 33.7246 37.8244 33.7246H41.6331C42.0272 33.7246 42.3482 33.4008 42.3482 33.0085V29.1989C42.3463 28.8047 42.0257 28.4824 41.6321 28.4824Z" fill="white"/>
</g>
</svg>
