<svg width="59" height="33" viewBox="0 0 59 33" fill="none" xmlns="http://www.w3.org/2000/svg">
<g clip-path="url(#clip0_92_647)">
<path d="M11.3632 3.80441C13.1975 1.87721 15.6308 0.751465 18.4895 0.751465C24.0585 0.751465 27.7507 4.81753 28.4571 10.9088C28.6862 12.8869 28.6841 15.6757 28.6818 18.9059C28.6813 19.2372 28.6813 19.5731 28.6813 19.9133V32.0142H21.0229V23.064C21.0229 23.064 21.0073 15.4039 20.9605 13.9723C20.755 7.73706 17.0637 3.81917 11.3624 3.81496C9.64229 5.6323 8.72063 7.85431 8.58471 11.2518C8.56602 11.7257 8.57072 13.4054 8.57692 15.6191C8.58013 16.7661 8.58374 18.0565 8.58471 19.3968C8.59038 25.2306 8.58471 32.0155 8.58471 32.0155H0.926274V18.2412C0.926274 17.7693 0.917667 17.2933 0.909039 16.8154C0.89167 15.8541 0.874163 14.8855 0.926274 13.9263C1.0128 12.3274 1.2894 10.7555 2.03552 9.29533C3.74337 5.95009 7.24276 3.79621 10.9734 3.79621C11.1037 3.79621 11.2341 3.79942 11.3632 3.80441Z" fill="white" fill-opacity="0.32"/>
<path d="M58.8661 19.5816C58.9182 18.6225 58.9007 17.6537 58.8834 16.6926C58.8747 16.2147 58.8661 15.7387 58.8661 15.2667V1.49242H51.2078C51.2078 1.49242 51.2021 8.2773 51.2078 14.111C51.2087 15.4514 51.2123 16.7417 51.2155 17.8886C51.2217 20.1025 51.2264 21.7822 51.2078 22.256C51.0719 25.6537 50.1501 27.8756 48.4301 29.693C42.7289 29.689 39.0377 25.7708 38.8321 19.5357C38.7852 18.1041 38.7654 14.5514 38.7654 10.4368V1.48657L31.1127 1.49356V13.5945C31.1127 13.9347 31.1123 14.2705 31.1123 14.6019C31.1099 17.8321 31.1079 20.6208 31.3369 22.599C32.0418 28.6903 35.7341 32.7563 41.3031 32.7563C44.1619 32.7563 46.5951 31.6306 48.4295 29.7033C48.5585 29.7083 48.6888 29.7114 48.8191 29.7114C52.5497 29.7114 56.0491 27.5575 57.757 24.2123C58.5031 22.752 58.7797 21.1802 58.8662 19.5813L58.8661 19.5816Z" fill="white" fill-opacity="0.32"/>
</g>
<defs>
<clipPath id="clip0_92_647">
<rect width="58.0091" height="32.0049" fill="white" transform="translate(0.891602 0.751465)"/>
</clipPath>
</defs>
</svg>
