<svg width="58" height="32" viewBox="0 0 58 32" fill="none" xmlns="http://www.w3.org/2000/svg">
<g clip-path="url(#clip0_171_121)">
<g clip-path="url(#clip1_171_121)">
<path d="M10.4716 3.05294C12.3059 1.12575 14.7392 0 17.5979 0C23.1669 0 26.8591 4.06606 27.5655 10.1573C27.7946 12.1354 27.7925 14.9243 27.7902 18.1545C27.7897 18.4857 27.7897 18.8217 27.7897 19.1618V31.2627H20.1313V22.3125C20.1313 22.3125 20.1157 14.6524 20.0689 13.2208C19.8634 6.98559 16.1721 3.06771 10.4708 3.0635C8.75069 4.88083 7.82903 7.10284 7.6931 10.5004C7.67442 10.9742 7.67912 12.6539 7.68532 14.8676C7.68853 16.0146 7.69214 17.305 7.6931 18.6453C7.69878 24.4792 7.6931 31.264 7.6931 31.264H0.0346727V17.4898C0.0346727 17.0178 0.0260651 16.5418 0.0174377 16.0639C6.84795e-05 15.1027 -0.0174383 14.134 0.0346727 13.1749C0.1212 11.5759 0.397803 10.0041 1.14392 8.54387C2.85177 5.19862 6.35116 3.04474 10.0818 3.04474C10.2121 3.04474 10.3425 3.04795 10.4716 3.05294Z" fill="white" fill-opacity="0.32"/>
<path d="M57.9745 18.8301C58.0266 17.871 58.0091 16.9022 57.9918 15.9411C57.9831 15.4632 57.9745 14.9872 57.9745 14.5153V0.740958H50.3162C50.3162 0.740958 50.3105 7.52583 50.3162 13.3596C50.3171 14.6999 50.3207 15.9902 50.3239 17.1372C50.3301 19.351 50.3348 21.0307 50.3162 21.5046C50.1803 24.9022 49.2585 27.1242 47.5385 28.9415C41.8373 28.9375 38.1461 25.0193 37.9405 18.7842C37.8936 17.3526 37.8738 13.8 37.8738 9.68531V0.735107L30.2211 0.742099V12.843C30.2211 13.1832 30.2207 13.519 30.2207 13.8504C30.2183 17.0806 30.2163 19.8693 30.4453 21.8476C31.1502 27.9388 34.8425 32.0049 40.4115 32.0049C43.2703 32.0049 45.7035 30.8791 47.5379 28.9519C47.6668 28.9569 47.7972 28.9599 47.9275 28.9599C51.6581 28.9599 55.1575 26.806 56.8654 23.4608C57.6115 22.0005 57.8881 20.4287 57.9746 18.8298L57.9745 18.8301Z" fill="white" fill-opacity="0.32"/>
</g>
</g>
<defs>
<clipPath id="clip0_171_121">
<rect width="58" height="32" fill="white"/>
</clipPath>
<clipPath id="clip1_171_121">
<rect width="58.0091" height="32.0049" fill="white"/>
</clipPath>
</defs>
</svg>
