<svg width="168" height="32" viewBox="0 0 168 32" fill="none" xmlns="http://www.w3.org/2000/svg">
<g clip-path="url(#clip0_179_75)">
<path d="M15.3684 0H16.9123L18.5263 0.140351L20.4912 0.561404L22.1754 1.12281L23.4386 1.68421L24.9123 2.52632L26.1754 3.4386L27.0877 4.21053L27.7193 4.77193L28.2105 5.33333L28.3509 5.61404H28.4912L29.4035 6.80702L30.1053 7.85965L31.0175 9.61404L31.6491 11.2982L32.0702 12.9123L32.3509 14.807L32.421 16.4211L32.2807 17.3333L31.9298 18.1754L31.5088 18.807L31.1579 19.2281L30.2456 19.8596L29.2632 20.2105L28.7018 20.2807H27.9298L26.9474 20.0702L26.1754 19.6491L25.4737 19.0877L24.9123 18.3158L24.4912 17.4035L24.3509 16.7018L24.2807 15.2982L24 13.8947L23.5789 12.7719L23.0175 11.7193L22.2456 10.7368L21.8947 10.3158L20.7018 9.40351L19.5789 8.77193L18.1053 8.2807L17.3333 8.14035L16.2105 8.07018L15.0175 8.14035L13.7544 8.42105L12.6316 8.84211L11.6491 9.40351L10.8772 10.0351L10.6667 10.2456H10.5263L10.4561 10.4561H10.3158L10.1754 10.7368L9.54386 11.4386L8.91228 12.4912L8.35088 13.8947L8.07017 15.2281L8 16V16.6316L8.21053 17.9649L8.63158 19.3684L9.33333 20.7018L9.82456 21.3333L10.4561 22.0351L11.2281 22.7368L12 23.2281L13.1228 23.7895L14.1754 24.1404L15.3684 24.3509L16.9825 24.4211L17.9649 24.6316L18.9474 25.1228L19.7895 25.8947L20.3509 26.8772L20.6316 28V28.8421L20.3509 29.9649L19.9298 30.7368L19.2281 31.5088L18.3158 32.0702L17.4035 32.3509H14.5965L12.9825 32.1404L11.3684 31.7193L10.1754 31.2982L8.77193 30.6667L7.64912 30.0351L6.80702 29.4737L5.82456 28.7018L4.91228 27.8596L3.92982 26.8772L3.15789 25.8947L2.38596 24.7719L1.75439 23.6491L1.12281 22.3158L0.491228 20.4211L0.140351 18.7368L0 17.6842V14.7368L0.280702 12.9825L0.561403 11.8596L0.912281 10.7368L1.33333 9.68421L1.89474 8.49123L2.80702 7.01754L3.7193 5.82456L4.70175 4.77193L5.54386 3.92982L6.73684 3.01754L7.78947 2.31579L8.91228 1.68421L10.5263 0.982456L12.3509 0.421053L14.4561 0.0701754L15.3684 0Z" fill="white" fill-opacity="0.32"/>
<path d="M103.298 8H104.982L105.544 8.2807L106.035 8.91228L107.017 10.4561L107.93 11.8596L109.053 13.614L109.825 14.807L110.947 16.5614L111.509 17.4035L111.719 17.6842V8.77193L111.86 8.14035L112.561 8L114.596 8.07018L114.807 8.21053L114.877 8.42105V23.0175L114.737 23.2982L114.456 23.4386H112.14L111.719 22.9474L109.965 20.2807L108.632 18.2456L107.368 16.3509L106.667 15.2281L106.246 14.5965L105.754 13.8246L105.684 23.1579L105.333 23.4386H103.017L102.807 23.3684L102.667 23.0877L102.596 22.5965V8.63158L102.737 8.21053L102.947 8.07018L103.298 8Z" fill="white" fill-opacity="0.32"/>
<path d="M53.4737 7.71924L54.6667 7.78941L55.9299 7.99994L56.9123 8.35082L57.8948 8.91222L58.7369 9.68415L59.2281 10.3157L59.7895 11.4385L60.0702 12.4912L60.1404 12.9122L60.2106 14.2456V17.7543L60.0702 19.0877L59.7895 20.1403L59.2281 21.2631L58.8071 21.8245V22.1052L59.579 23.228L60.1404 24.0701L60.2106 24.5613L60.0702 24.7719L59.8597 24.842H57.2632L56.772 24.421L56.2106 23.6491L56.0702 23.4385L55.4387 23.5087L54.5966 23.6491H52.4913L51.0878 23.3684L50.0352 22.9473L49.1229 22.3157L48.4211 21.614L47.9299 20.842L47.579 20.0701L47.2983 19.0877L47.158 17.9649V13.614L47.3685 12.2105L47.7895 10.9473L48.3509 10.035L48.9825 9.33327L49.6843 8.77187L50.8071 8.21047L51.7194 7.92976L52.6316 7.78941L53.4737 7.71924ZM53.193 10.4561L52.3509 10.6666L51.6492 11.0877L51.158 11.6491L50.7369 12.4912L50.5264 13.614L50.4562 15.0877V17.1227L50.5966 18.4561L50.9474 19.5087L51.3685 20.0701L51.9299 20.5613L52.5615 20.842L53.1229 20.9824H54.3159L55.158 20.7017L55.8597 20.2806L56.2808 19.7894L56.5615 19.228L56.8422 18.1052V13.4034L56.6316 12.421L56.2106 11.5789L55.8597 11.1578L55.158 10.7368L54.5264 10.5263L54.1755 10.4561H53.193Z" fill="white" fill-opacity="0.32"/>
<path d="M161.263 7.71924L162.526 7.78941L163.719 7.99994L164.632 8.35082L165.544 8.84205L166.316 9.47362L166.877 10.1754L167.369 11.1578L167.439 11.3684V12.1403L167.088 12.4912L166.456 12.5613H165.684L164.491 12.4912L164.14 12.1403L163.86 11.4385L163.298 10.9473L162.667 10.6666L161.965 10.5263H160.912L160.07 10.7368L159.509 11.0877L159.298 11.1578L159.088 11.7894V12.5613L159.439 13.1227L159.93 13.5438L161.053 13.9649L162.456 14.3859L164.351 14.8771L165.754 15.4385L166.456 15.8596L167.158 16.4912L167.579 17.0526L167.93 18.1052L168 18.7368L167.93 19.8596L167.579 20.9122L167.088 21.6842L166.737 22.035L166.176 22.5263L165.474 22.9473L164.281 23.3684L163.369 23.5789L162.737 23.6491H160.421L159.158 23.4385L157.825 22.9473L156.842 22.3157L156.421 21.9649L155.79 21.1227L155.439 20.3508L155.298 19.7894L155.369 19.0877L155.579 18.8771L156.14 18.807H157.825L158.316 18.9473L158.597 19.2982L159.018 19.9999L159.579 20.4912L160.491 20.842L160.983 20.9122H162.386L163.369 20.7017L164.07 20.3508L164.491 19.7894L164.561 19.5789V18.7368L164.211 18.1754L163.509 17.7543L162.386 17.3333L159.439 16.4912L158.316 16.0701L157.263 15.5087L156.421 14.7368L156.07 14.1754L155.719 13.1227L155.649 12.6315V11.9999L155.86 10.9473L156.14 10.3157L156.632 9.61398L157.263 8.9824L158.176 8.42099L159.018 8.07012L159.93 7.85959L161.263 7.71924Z" fill="white" fill-opacity="0.32"/>
<path d="M138.175 8L140.351 8.07018L140.561 8.14035L140.632 8.35088L140.702 16.5614L140.772 18.6667L141.053 19.4386L141.474 20.0702L142.035 20.4912L142.737 20.7719L143.088 20.8421H144.421L145.263 20.5614L146.035 20L146.456 19.2982L146.667 18.4561L146.737 8.5614L146.947 8.14035L147.368 8H148.281L149.754 8.07018L149.965 8.21053V18.9474L149.684 20.1404L149.333 20.9825L148.842 21.6842L148.14 22.386L147.439 22.8772L146.456 23.2982L145.333 23.5789L144.772 23.6491H142.597L141.404 23.4386L140.421 23.0877L139.649 22.6667L138.947 22.1053V21.9649H138.807L138.175 21.1228L137.684 20L137.474 19.0877L137.404 18.4561V8.2807L137.614 8.07018L138.175 8Z" fill="white" fill-opacity="0.32"/>
<path d="M66.5262 8H67.4385L68.9122 8.07018L69.0525 8.21053L69.1227 16.0702L69.1929 18.1754L69.4034 19.1579L69.6841 19.7193L70.1753 20.2807L70.8069 20.6316L71.5087 20.8421H72.9122L73.7543 20.5614L74.456 20.0702L74.9473 19.2982L75.1578 18.4561L75.228 8.77193L75.3683 8.14035L75.5087 8.07018H78.2455L78.456 8.21053V18.807L78.2455 19.8596L77.8946 20.7719L77.4034 21.614L77.1227 21.9649L76.5613 22.4561L75.649 23.0175L74.456 23.4386L73.2631 23.6491H71.0174L69.6139 23.3684L68.4911 22.8772L67.7894 22.386L67.1578 21.8246L66.6666 21.1228L66.2455 20.2105L65.9648 19.0877L65.8245 17.5439V8.63158L65.9648 8.21053L66.1052 8.07018L66.5262 8Z" fill="white" fill-opacity="0.32"/>
<path d="M89.6841 8H90.8069L91.9999 8.07018L92.3508 8.42105L92.9122 9.82456L94.1052 13.0526L95.5788 16.9825L96.1402 18.4561L96.5613 19.6491L97.4736 22.1053L97.6841 22.6667V23.1579L97.5438 23.3684L97.3332 23.4386H94.8069L94.456 22.8772L93.4736 20.4211L87.1578 20.3509L87.0876 20.7018L86.2455 22.8772L85.9648 23.3684L85.8245 23.4386H83.2981L83.0174 23.1579L82.9473 22.9474L83.5087 21.2632L84.2806 19.2281L85.4034 16.2105L85.8946 14.9474L86.3157 13.7544L87.4385 10.7368L88.2104 8.70175L88.5613 8.14035L88.6315 8.07018L89.6841 8ZM90.3157 11.2982L89.3332 13.9649L88.2104 17.0526L87.9999 17.6842H92.7017L92.4911 17.0526L91.0174 12.9825L90.456 11.4386L90.3157 11.2982Z" fill="white" fill-opacity="0.32"/>
<path d="M120.702 8H130.667L132.07 8.07018L132.281 8.14035L132.351 8.35088V10.5965L132.14 10.807L131.93 10.8772L127.86 10.9474L127.79 23.1579L127.579 23.3684L127.439 23.4386H124.912L124.632 23.1579L124.562 22.8772V10.8772L124.211 10.9474L120.421 10.8772L120.14 10.7368L120 10.4561L119.93 9.96491V8.84211L120 8.2807L120.211 8.07018L120.702 8Z" fill="white" fill-opacity="0.32"/>
<path d="M28.3508 24.772H29.1929L29.8947 24.9123L30.5263 25.193L31.2982 25.6843L31.9298 26.386L32.421 27.3685L32.6315 28.3509L32.5614 29.193L32.2807 30.1053L31.8596 30.8772L31.5789 31.2281L30.7368 31.8597L29.8947 32.2106L29.2631 32.3509H28.3508L27.6491 32.2106L26.9473 31.9299L26.1052 31.2983L25.5438 30.5965L25.0526 29.4737L24.9824 29.0527V28.1404L25.2631 27.0878L25.6842 26.3158L25.8245 26.1053H25.9649L26.1052 25.8246L26.7368 25.3334L27.4386 24.9825L28.3508 24.772Z" fill="white" fill-opacity="0.32"/>
</g>
<defs>
<clipPath id="clip0_179_75">
<rect width="168" height="32" fill="white"/>
</clipPath>
</defs>
</svg>
