<svg width="125" height="32" viewBox="0 0 125 32" fill="none" xmlns="http://www.w3.org/2000/svg">
<path fill-rule="evenodd" clip-rule="evenodd" d="M8.85062 8.07938C9.25033 6.02706 10.4764 5 12.5305 5V5.00179H48.0975C49.6761 5.00179 50.5304 5.60838 50.6588 6.82319C51.1046 6.66175 51.6154 6.58101 52.1914 6.58101H116.22C118.273 6.58101 119.101 7.60627 118.701 9.66039L115.948 24.274C115.548 26.3281 114.322 27.3552 112.302 27.3552H48.2731C46.6709 27.3552 45.8107 26.7495 45.6788 25.538C45.2408 25.6966 44.7407 25.776 44.1793 25.776H8.61223C6.52585 25.776 5.69775 24.7489 6.09746 22.6948L8.85062 8.07938ZM20.2146 17.2584C20.2307 15.5681 19.2521 14.2865 17.4811 13.3724V13.376C17.4395 13.3566 17.3936 13.3358 17.3445 13.3136C16.835 13.0829 15.9796 12.6955 15.9845 12.089C15.9881 11.7019 16.23 11.4904 16.6746 11.4904C17.3933 11.4904 18.1551 11.8381 19.2395 12.8795L21.005 9.5187C19.7503 8.35721 18.2501 7.75854 16.4702 7.75854C14.9287 7.75854 13.6579 8.25146 12.6918 9.16559C11.7597 10.0797 11.2686 11.2771 11.2561 12.72C11.2381 14.5142 12.2526 15.8513 14.2978 16.8013C15.1492 17.2243 15.5292 17.4179 15.5883 17.7871C15.5632 19.4147 12.3064 17.4842 11.4156 16.3335L9.20373 19.8628C10.9334 21.553 12.7724 22.3973 14.7925 22.3973C17.7375 22.3973 20.1859 20.4023 20.2146 17.2584ZM47.2533 12.7397H45.6831L46.1545 10.0475H42.2919L41.8205 12.7397H40.2252L39.6104 16.2259H41.1716L40.0854 22.4026H43.9122L45.0325 16.2259H46.6385L47.2533 12.7397ZM39.2573 11.4456L39.8309 8.0991C35.9987 7.2226 33.9607 9.00069 33.3172 12.7522H31.9657L31.3169 16.2331H32.7042L31.618 22.4026H35.7244L36.8106 16.2331H38.3844L38.9992 12.7522H37.4595C37.4738 11.8704 37.895 11.2842 39.2573 11.4456ZM30.8132 16.8909C30.8275 15.5645 30.4278 14.4694 29.6141 13.6395V13.6413C28.8021 12.8454 27.7105 12.4475 26.3411 12.4475C24.8014 12.4475 23.4947 13.0121 22.3888 14.1396C21.4191 15.2007 20.928 16.4948 20.9118 18.0542C20.8993 19.3143 21.299 20.3431 22.1128 21.139C22.9606 21.9689 24.0163 22.3668 25.3176 22.3668C27.0634 22.3668 28.5063 21.7018 29.5818 20.3091C30.4135 19.3125 30.8006 18.151 30.8132 16.8909ZM27.2337 17.262C27.2391 16.8927 27.128 16.5898 26.9021 16.3604C26.6763 16.1399 26.3751 16.0288 25.9952 16.0288C25.5686 16.0288 25.2065 16.1865 24.9 16.4984C24.6311 16.7924 24.4949 17.1508 24.4913 17.5828C24.4877 17.9323 24.5989 18.2173 24.8247 18.4378C25.0595 18.6672 25.3517 18.7784 25.7119 18.7784C26.1959 18.7784 26.5956 18.5937 26.8932 18.2084C27.1226 17.9323 27.2301 17.6115 27.2337 17.262ZM115.374 13.3976H113.804L114.241 10.8864H110.379L109.941 13.3976H108.346L107.697 17.0649H109.259L108.172 23.2416H111.999L113.119 17.0649H114.725L115.374 13.3976ZM60.5996 19.5743H55.8425H55.8407L56.0845 18.1314H60.225L60.8488 14.7365H56.7083L56.9951 13.4101H61.3757L62.0246 9.77152H53.4909L50.96 23.2237H59.9059L60.5996 19.5743ZM68.6476 15.5413L67.6367 13.4101H67.6349H62.6717L65.6274 18.4182L60.9025 23.2434H66.2081L67.7765 21.2502L68.9451 23.2434H73.8743L70.7609 18.4182L75.267 13.4101H70.1676L68.6476 15.5413ZM87.0038 17.2441C87.0146 13.0678 82.7809 12.3795 80.7142 14.8029V14.8011L80.9974 13.403H76.9895L74.7723 25.6542H78.8304L79.4953 21.5746C80.2464 22.7056 81.1372 23.1484 82.1983 23.1484C84.826 23.1484 86.9966 20.4329 87.0038 17.2441ZM83.1698 18.5992C83.4602 17.8213 83.1124 16.9681 82.3955 16.6921C81.6767 16.416 80.8612 16.8247 80.5708 17.6026C80.2804 18.3805 80.6282 19.2337 81.3451 19.5098C82.0639 19.7858 82.8794 19.3771 83.1698 18.5992ZM97.9806 18.5777C98.262 14.9588 96.0717 13.455 93.4279 13.3635V13.3617C90.7553 13.3617 87.8964 15.2044 87.8875 18.8914C87.8803 21.908 90.3843 23.1842 92.503 23.1842C94.817 23.1842 96.57 22.5748 97.6472 20.1013L94.186 19.6675C93.8724 20.8379 91.2554 21.1462 91.8039 18.5867L97.9806 18.5777ZM91.9832 16.9968H94.2291C94.3187 16.278 94.0713 15.5682 93.3185 15.5682C92.4743 15.5682 92.1319 16.2726 91.9832 16.9968ZM103.484 15.1216C103.483 15.1229 103.482 15.1242 103.482 15.1255H103.483L103.484 15.1216ZM107.273 13.403C105.064 13.3994 104.454 13.6749 103.484 15.1216L103.84 13.4066L100.017 13.4406L98.2531 23.2434H102.521L103.223 19.1764C103.473 17.6546 104.389 16.9627 106.624 17.0595L107.273 13.403Z" fill="white" fill-opacity="0.32"/>
</svg>
