<svg width="117" height="32" viewBox="0 0 117 32" fill="none" xmlns="http://www.w3.org/2000/svg">
<path fill-rule="evenodd" clip-rule="evenodd" d="M2.94511 4.86112C3.34482 2.8088 4.57083 1.78174 6.62495 1.78174V1.78353H42.192C43.7706 1.78353 44.6249 2.39012 44.7533 3.60493C45.1991 3.44349 45.7099 3.36275 46.2858 3.36275H110.315C112.367 3.36275 113.195 4.38801 112.796 6.44213L110.042 21.0558C109.643 23.1099 108.417 24.1369 106.397 24.1369H42.3676C40.7653 24.1369 39.9052 23.5312 39.7733 22.3197C39.3352 22.4784 38.8352 22.5577 38.2738 22.5577H2.70671C0.620334 22.5577 -0.207765 21.5307 0.191945 19.4765L2.94511 4.86112ZM14.3091 14.0401C14.3252 12.3499 13.3465 11.0683 11.5756 10.1541V10.1577C11.534 10.1383 11.4881 10.1176 11.439 10.0953C10.9295 9.86461 10.074 9.47728 10.079 8.87077C10.0825 8.48361 10.3245 8.2721 10.769 8.2721C11.4878 8.2721 12.2496 8.61983 13.334 9.66123L15.0995 6.30044C13.8448 5.13895 12.3446 4.54028 10.5647 4.54028C9.02321 4.54028 7.75239 5.03319 6.78627 5.94733C5.85421 6.86146 5.36309 8.0588 5.35054 9.5017C5.33261 11.2959 6.34713 12.6331 8.39228 13.5831C9.24368 14.0061 9.62368 14.1996 9.68283 14.5689C9.65773 16.1964 6.4009 14.266 5.51006 13.1152L3.29821 16.6445C5.0279 18.3348 6.86693 19.179 8.88699 19.179C11.8319 19.179 14.2804 17.184 14.3091 14.0401ZM41.3478 9.52142H39.7776L40.249 6.8292H36.3863L35.9149 9.52142H34.3197L33.7049 13.0077H35.2661L34.1799 19.1844H38.0067L39.127 13.0077H40.733L41.3478 9.52142ZM33.3518 8.22729L33.9254 4.88084C30.0931 4.00434 28.0552 5.78243 27.4117 9.53397H26.0602L25.4113 13.0149H26.7987L25.7125 19.1844H29.8189L30.9051 13.0149H32.4789L33.0937 9.53397H31.554C31.5683 8.6521 31.9895 8.06597 33.3518 8.22729ZM24.9077 13.6727C24.922 12.3463 24.5223 11.2511 23.7085 10.4212V10.423C22.8966 9.62717 21.805 9.22926 20.4356 9.22926C18.8959 9.22926 17.5892 9.79387 16.4833 10.9213C15.5136 11.9824 15.0225 13.2765 15.0063 14.836C14.9938 16.096 15.3935 17.1249 16.2072 17.9207C17.0551 18.7506 18.1108 19.1485 19.4121 19.1485C21.1579 19.1485 22.6008 18.4835 23.6763 17.0908C24.508 16.0942 24.8951 14.9327 24.9077 13.6727ZM21.3282 14.0437C21.3336 13.6745 21.2224 13.3715 20.9966 13.1421C20.7708 12.9216 20.4696 12.8105 20.0896 12.8105C19.663 12.8105 19.301 12.9683 18.9945 13.2801C18.7256 13.5741 18.5894 13.9326 18.5858 14.3645C18.5822 14.7141 18.6933 14.9991 18.9192 15.2195C19.154 15.449 19.4462 15.5601 19.8064 15.5601C20.2904 15.5601 20.6901 15.3755 20.9876 14.9901C21.2171 14.7141 21.3246 14.3932 21.3282 14.0437ZM109.469 10.1793H107.899L108.336 7.66815H104.473L104.036 10.1793H102.441L101.792 13.8466H103.353L102.267 20.0233H106.094L107.214 13.8466H108.82L109.469 10.1793ZM54.6941 16.356H49.937H49.9352L50.179 14.9131H54.3195L54.9432 11.5183H50.8027L51.0895 10.1919H55.4702L56.1191 6.55326H47.5854L45.0545 20.0054H54.0004L54.6941 16.356ZM62.7421 12.3231L61.7312 10.1919H61.7294H56.7661L59.7218 15.1999L54.997 20.0251H60.3026L61.871 18.0319L63.0396 20.0251H67.9688L64.8553 15.1999L69.3615 10.1919H64.2621L62.7421 12.3231ZM81.0983 14.0259C81.109 9.84953 76.8753 9.16123 74.8087 11.5846V11.5828L75.0919 10.1847H71.084L68.8668 22.4359H72.9248L73.5898 18.3564C74.3409 19.4874 75.2317 19.9301 76.2928 19.9301C78.9205 19.9301 81.0911 17.2146 81.0983 14.0259ZM77.2643 15.3809C77.5547 14.603 77.2069 13.7498 76.49 13.4738C75.7712 13.1978 74.9557 13.6064 74.6653 14.3844C74.3749 15.1623 74.7226 16.0155 75.4396 16.2915C76.1584 16.5675 76.9739 16.1589 77.2643 15.3809ZM92.0751 15.3594C92.3565 11.7405 90.1662 10.2367 87.5223 10.1453V10.1435C84.8498 10.1435 81.9909 11.9861 81.9819 15.6731C81.9748 18.6898 84.4788 19.966 86.5974 19.966C88.9115 19.966 90.6645 19.3565 91.7417 16.883L88.2805 16.4492C87.9669 17.6197 85.3499 17.928 85.8984 15.3684L92.0751 15.3594ZM86.0776 13.7785H88.3235C88.4132 13.0598 88.1658 12.35 87.413 12.35C86.5688 12.35 86.2264 13.0544 86.0776 13.7785ZM97.5786 11.9033C97.5778 11.9046 97.5769 11.9059 97.576 11.9072H97.5778L97.5786 11.9033ZM101.367 10.1847C99.1589 10.1811 98.5486 10.4567 97.5786 11.9033L97.9345 10.1883L94.1113 10.2224L92.3475 20.0251H96.6153L97.3179 15.9581C97.5671 14.4363 98.483 13.7445 100.718 13.8413L101.367 10.1847Z" fill="white" fill-opacity="0.32"/>
<path fill-rule="evenodd" clip-rule="evenodd" d="M1.96822 29.084C1.44304 28.9262 1.07201 28.7308 0.855127 28.5014C0.638243 28.272 0.553999 27.987 0.602395 27.65C0.65796 27.2682 0.856919 26.9528 1.19748 26.7018C1.53983 26.4527 1.95388 26.3272 2.44142 26.3272C2.77481 26.3272 3.06339 26.3917 3.30537 26.5208C3.54914 26.6498 3.7248 26.8273 3.83413 27.0531C3.94526 27.279 3.98111 27.5263 3.94168 27.7952H3.29999C3.34122 27.5012 3.28207 27.2718 3.12075 27.1033C2.95764 26.9366 2.7067 26.8524 2.36614 26.8524C2.05067 26.8524 1.79615 26.9223 1.59898 27.0603C1.40182 27.2001 1.2871 27.3919 1.25125 27.6393C1.22257 27.8364 1.28172 28.0049 1.43049 28.1411C1.57747 28.2774 1.84454 28.4028 2.23171 28.5158C2.61708 28.6287 2.91641 28.7541 3.12254 28.8904C3.33046 29.0266 3.47565 29.1861 3.55989 29.3689C3.64414 29.55 3.66744 29.7651 3.63159 30.0124C3.57423 30.405 3.37707 30.7204 3.03651 30.957C2.69595 31.1936 2.26935 31.3119 1.75672 31.3119C1.42332 31.3119 1.1222 31.2474 0.851542 31.1201C0.582678 30.9911 0.385512 30.8172 0.260042 30.595C0.134572 30.3727 0.0933466 30.1218 0.134572 29.8386H0.77626C0.735034 30.1307 0.808523 30.362 1.00211 30.5304C1.19389 30.6989 1.46993 30.785 1.832 30.785C2.16897 30.785 2.43784 30.7151 2.6368 30.5788C2.83755 30.4408 2.95405 30.2544 2.98811 30.0178C3.02217 29.7794 2.96481 29.5966 2.81783 29.4657C2.67085 29.3367 2.38586 29.2076 1.96643 29.0822L1.96822 29.084ZM4.1962 29.4102C4.24639 29.0571 4.36111 28.7398 4.54035 28.4584C4.71959 28.1752 4.94364 27.9583 5.2143 27.8042C5.48316 27.65 5.77712 27.5747 6.09438 27.5747C6.5855 27.5747 6.95833 27.7432 7.21285 28.0838C7.46558 28.4243 7.55162 28.876 7.47096 29.4389L7.46558 29.4819C7.41539 29.8332 7.30247 30.1487 7.12861 30.4265C6.95474 30.7043 6.73069 30.9212 6.45824 31.0771C6.18758 31.2331 5.88825 31.3101 5.56382 31.3101C5.07449 31.3101 4.70346 31.1417 4.45073 30.8011C4.1962 30.4605 4.11017 30.0106 4.19083 29.4514L4.1962 29.4084V29.4102ZM4.80383 29.4819C4.74648 29.8816 4.79308 30.2024 4.94185 30.4444C5.09241 30.6864 5.32364 30.8065 5.63373 30.8065C5.94382 30.8065 6.21268 30.6846 6.43135 30.439C6.65003 30.1935 6.79163 29.8511 6.85616 29.4084C6.91352 29.0123 6.86512 28.6932 6.71276 28.4476C6.56041 28.2021 6.32919 28.0802 6.0173 28.0802C5.70542 28.0802 5.4509 28.2003 5.23043 28.4423C5.00996 28.6842 4.86657 29.0302 4.80204 29.4819H4.80383ZM8.20227 31.2438L8.65217 28.1214H8.08218L8.15029 27.6446H8.72028L8.77405 27.2754C8.82962 26.8882 8.97659 26.5907 9.21319 26.3792C9.44979 26.1695 9.7563 26.0637 10.1345 26.0637C10.2761 26.0637 10.4141 26.0834 10.5486 26.1211L10.4446 26.6194C10.3424 26.5997 10.2331 26.5907 10.1166 26.5907C9.91582 26.5907 9.75451 26.6481 9.62904 26.7664C9.50357 26.8829 9.4247 27.0513 9.39244 27.2682L9.33867 27.6482H10.1076L10.0395 28.125H9.27055L8.82065 31.2474H8.20406L8.20227 31.2438ZM11.6634 26.7699H11.0468L10.9214 27.6428H10.2653L10.1972 28.1196H10.8533L10.5324 30.353C10.4876 30.6595 10.5235 30.8943 10.64 31.061C10.7565 31.2277 10.9518 31.3101 11.2261 31.3101C11.3802 31.3101 11.5398 31.2868 11.7082 31.2438L11.7799 30.7455C11.6527 30.7724 11.5523 30.785 11.4806 30.785C11.3354 30.785 11.2386 30.7491 11.1902 30.6774C11.14 30.6039 11.1257 30.4964 11.1472 30.353L11.4681 28.1196H12.1402L12.2083 27.6428H11.5362L11.6616 26.7699H11.6634ZM15.6354 30.3942L16.7252 27.6428H17.3418L15.7753 31.2438H15.277L14.793 28.5158L13.5491 31.2438H13.049L12.522 27.6428H13.135L13.4559 30.3386L14.6819 27.6428H15.1766L15.6372 30.3942H15.6354ZM19.5913 31.2438C19.5662 31.1739 19.5555 31.0467 19.5591 30.8656C19.2293 31.1632 18.8672 31.3119 18.4693 31.3119C18.1144 31.3119 17.8365 31.2116 17.6394 31.0108C17.4404 30.8101 17.3633 30.5555 17.4082 30.2472C17.4619 29.8726 17.6465 29.5805 17.9602 29.3725C18.2757 29.1646 18.6915 29.0607 19.2077 29.0607H19.8064L19.8476 28.7774C19.8781 28.5624 19.8387 28.3903 19.7293 28.263C19.6182 28.1358 19.4372 28.0712 19.188 28.0712C18.9676 28.0712 18.7758 28.1268 18.6109 28.2379C18.446 28.3491 18.3528 28.4835 18.3295 28.6394H17.7093C17.7344 28.4602 17.824 28.2863 17.9746 28.1178C18.1269 27.9511 18.3187 27.8185 18.5517 27.7199C18.7847 27.6213 19.0303 27.5729 19.2938 27.5729C19.7078 27.5729 20.0179 27.6769 20.2241 27.8848C20.4302 28.091 20.5108 28.3777 20.466 28.7416L20.2276 30.3996C20.1792 30.7312 20.1864 30.9929 20.242 31.1883L20.2348 31.242H19.5877L19.5913 31.2438ZM18.6342 30.7868C18.8278 30.7868 19.0177 30.7366 19.2042 30.6362C19.3924 30.5358 19.5358 30.405 19.6361 30.2437L19.7437 29.498H19.2615C18.5069 29.498 18.0982 29.7203 18.0337 30.1666C18.005 30.3602 18.048 30.5125 18.161 30.6219C18.2739 30.7312 18.4316 30.7868 18.6342 30.7868ZM23.1708 28.1913C23.0794 28.1752 22.9808 28.168 22.8715 28.168C22.4664 28.168 22.1688 28.3401 21.9752 28.6842L21.6078 31.2438H20.9912L21.5092 27.6428H22.1079L22.0577 28.0569C22.3068 27.7361 22.6151 27.5747 22.9862 27.5747C23.1063 27.5747 23.1959 27.5909 23.2515 27.6213L23.169 28.1913H23.1708ZM24.6997 31.3119C25.3038 31.3119 25.7895 31.0807 26.1588 30.6165L25.8254 30.3225C25.6909 30.4677 25.5422 30.5842 25.3791 30.6738C25.2159 30.7617 25.0242 30.8065 24.8073 30.8065C24.5008 30.8065 24.2642 30.6971 24.0957 30.4785C23.929 30.2598 23.8663 29.973 23.9075 29.6199H26.3488L26.3864 29.3636C26.4689 28.7882 26.4025 28.3473 26.1874 28.0372C25.9724 27.7289 25.63 27.5747 25.1622 27.5747C24.8754 27.5747 24.5976 27.6536 24.3305 27.8131C24.0616 27.9709 23.8394 28.1913 23.6637 28.4727C23.4863 28.7541 23.3733 29.0732 23.3214 29.4299L23.3052 29.5428C23.2282 30.0805 23.3196 30.5089 23.5795 30.8298C23.8394 31.1506 24.2158 31.3101 24.7033 31.3101L24.6997 31.3119ZM25.0887 28.0802C25.345 28.0802 25.5386 28.1662 25.6641 28.3401C25.7895 28.514 25.8397 28.7559 25.8128 29.0714L25.8057 29.118H24.0007C24.0867 28.79 24.2283 28.5355 24.4237 28.3544C24.6191 28.1734 24.8395 28.082 25.0887 28.082V28.0802ZM28.6484 31.2438L29.0983 28.1214H28.5283L28.5965 27.6446H29.1664L29.2202 27.2754C29.2758 26.8882 29.4228 26.5907 29.6594 26.3792C29.896 26.1695 30.2025 26.0637 30.5807 26.0637C30.7223 26.0637 30.8603 26.0834 30.9947 26.1211L30.8908 26.6194C30.7886 26.5997 30.6793 26.5907 30.5627 26.5907C30.362 26.5907 30.2007 26.6481 30.0752 26.7664C29.9497 26.8829 29.8709 27.0513 29.8386 27.2682L29.7848 27.6482H30.5538L30.4857 28.125H29.7167L29.2668 31.2474H28.6502L28.6484 31.2438ZM30.7294 29.4102L30.7241 29.4532C30.6434 30.0124 30.7294 30.4623 30.984 30.8029C31.2367 31.1434 31.6077 31.3119 32.0971 31.3119C32.4215 31.3119 32.719 31.2349 32.9915 31.0789C33.2639 30.923 33.488 30.7061 33.6618 30.4283C33.8357 30.1504 33.9486 29.835 33.9988 29.4837L34.0042 29.4406C34.0849 28.8778 33.9988 28.4243 33.7461 28.0856C33.4916 27.745 33.1187 27.5765 32.6276 27.5765C32.3104 27.5765 32.0164 27.6518 31.7475 27.806C31.4769 27.9601 31.2528 28.177 31.0736 28.4602C30.8943 28.7416 30.7796 29.0589 30.7294 29.412V29.4102ZM31.3389 29.4819C31.4034 29.0302 31.5468 28.6842 31.7673 28.4423C31.9877 28.2003 32.2512 28.0802 32.5541 28.0802C32.857 28.0802 33.0972 28.2021 33.2496 28.4476C33.4019 28.6932 33.4485 29.0123 33.393 29.4084C33.3302 29.8511 33.1886 30.1935 32.9682 30.439C32.7495 30.6846 32.4824 30.8065 32.1706 30.8065C31.8587 30.8065 31.6292 30.6864 31.4787 30.4444C31.3281 30.2024 31.2833 29.8798 31.3407 29.4819H31.3389ZM36.6122 28.1913C36.5208 28.1752 36.4222 28.168 36.3128 28.168C35.9078 28.168 35.6102 28.3401 35.4166 28.6842L35.0492 31.2438H34.4326L34.9506 27.6428H35.5493L35.4991 28.0569C35.7482 27.7361 36.0565 27.5747 36.4276 27.5747C36.5476 27.5747 36.6373 27.5909 36.6928 27.6213L36.6104 28.1913H36.6122ZM39.2685 29.3474L38.9961 31.2438H38.358L39.0552 26.3953H40.8423C41.3729 26.3953 41.769 26.5297 42.0307 26.8022C42.2924 27.0729 42.3909 27.4313 42.3264 27.8777C42.2583 28.3491 42.0593 28.7111 41.7295 28.9657C41.3979 29.2202 40.9588 29.3474 40.4103 29.3474H39.2685ZM39.3438 28.8223H40.4928C40.8351 28.8223 41.1076 28.7416 41.3137 28.5803C41.518 28.4208 41.6435 28.1877 41.6865 27.883C41.7277 27.5944 41.6704 27.3632 41.5127 27.1894C41.3549 27.0173 41.1183 26.9277 40.8029 26.9205H39.6181L39.3438 28.8223ZM43.9629 31.3119C43.4754 31.3119 43.1007 31.1524 42.8391 30.8316C42.5792 30.5107 42.4877 30.0823 42.5648 29.5446L42.5809 29.4317C42.6329 29.075 42.7458 28.7559 42.9233 28.4745C43.1007 28.1931 43.323 27.9727 43.5901 27.8149C43.8589 27.6554 44.135 27.5765 44.4218 27.5765C44.8896 27.5765 45.2319 27.7307 45.447 28.039C45.6621 28.3473 45.7284 28.79 45.646 29.3654L45.6083 29.6217H43.1671C43.1258 29.9766 43.1868 30.2634 43.3553 30.4803C43.522 30.6989 43.7586 30.8083 44.0669 30.8083C44.2837 30.8083 44.4737 30.7635 44.6386 30.6756C44.8018 30.5878 44.9505 30.4695 45.085 30.3243L45.4184 30.6183C45.0491 31.0825 44.5634 31.3137 43.9593 31.3137L43.9629 31.3119ZM44.3519 28.0802C44.1027 28.0802 43.8822 28.1716 43.6869 28.3526C43.4933 28.5337 43.3517 28.7882 43.2639 29.1162H45.0688L45.076 29.0696C45.1029 28.7541 45.0545 28.5122 44.9272 28.3383C44.8 28.1644 44.6082 28.0784 44.3519 28.0784V28.0802ZM48.1841 28.1913C48.0926 28.1752 47.9941 28.168 47.8847 28.168C47.4796 28.168 47.1821 28.3401 46.9885 28.6842L46.6211 31.2438H46.0045L46.5225 27.6428H47.1211L47.071 28.0569C47.3201 27.7361 47.6284 27.5747 47.9994 27.5747C48.1195 27.5747 48.2092 27.5909 48.2647 27.6213L48.1823 28.1913H48.1841ZM48.5802 31.2438L49.0301 28.1214H48.4601L48.5282 27.6446H49.0982L49.152 27.2754C49.2075 26.8882 49.3545 26.5907 49.5911 26.3792C49.8277 26.1695 50.1342 26.0637 50.5124 26.0637C50.654 26.0637 50.792 26.0834 50.9265 26.1211L50.8225 26.6194C50.7203 26.5997 50.611 26.5907 50.4945 26.5907C50.2937 26.5907 50.1324 26.6481 50.007 26.7664C49.8815 26.8829 49.8026 27.0513 49.7704 27.2682L49.7166 27.6482H50.4855L50.4174 28.125H49.6485L49.1986 31.2474H48.582L48.5802 31.2438ZM50.6612 29.4102L50.6558 29.4532C50.5751 30.0124 50.6612 30.4623 50.9157 30.8029C51.1684 31.1434 51.5395 31.3119 52.0288 31.3119C52.3532 31.3119 52.6508 31.2349 52.9232 31.0789C53.1957 30.923 53.4197 30.7061 53.5936 30.4283C53.7675 30.1504 53.8804 29.835 53.9306 29.4837L53.9359 29.4406C54.0166 28.8778 53.9306 28.4243 53.6778 28.0856C53.4233 27.745 53.0505 27.5765 52.5594 27.5765C52.2421 27.5765 51.9481 27.6518 51.6793 27.806C51.4086 27.9601 51.1846 28.177 51.0053 28.4602C50.8261 28.7416 50.7114 29.0589 50.6612 29.412V29.4102ZM51.2706 29.4819C51.3351 29.0302 51.4785 28.6842 51.699 28.4423C51.9195 28.2003 52.183 28.0802 52.4859 28.0802C52.7888 28.0802 53.029 28.2021 53.1813 28.4476C53.3337 28.6932 53.3803 29.0123 53.3247 29.4084C53.262 29.8511 53.1204 30.1935 52.8999 30.439C52.6812 30.6846 52.4142 30.8065 52.1023 30.8065C51.7904 30.8065 51.561 30.6864 51.4104 30.4444C51.2599 30.2024 51.215 29.8798 51.2724 29.4819H51.2706ZM56.5457 28.1913C56.4543 28.1752 56.3557 28.168 56.2464 28.168C55.8413 28.168 55.5437 28.3401 55.3502 28.6842L54.9827 31.2438H54.3661L54.8841 27.6428H55.4828L55.4326 28.0569C55.6818 27.7361 55.9901 27.5747 56.3611 27.5747C56.4812 27.5747 56.5708 27.5909 56.6264 27.6213L56.5439 28.1913H56.5457ZM57.6857 27.6428H57.1032L56.5851 31.2438H57.2017L57.5799 28.6161C57.7789 28.272 58.08 28.0999 58.4833 28.0999C58.996 28.0999 59.2146 28.3616 59.1394 28.885L58.8006 31.2438H59.4208L59.7649 28.8545C59.8223 28.6233 59.937 28.4405 60.1073 28.3042C60.2775 28.168 60.4783 28.0999 60.7059 28.0999C60.9837 28.0999 61.172 28.1644 61.2723 28.2917C61.3709 28.419 61.4032 28.6125 61.3655 28.8689L61.0232 31.2438H61.6398L61.9875 28.8294C62.0951 27.9924 61.7527 27.5747 60.964 27.5747C60.7023 27.5747 60.4657 27.6285 60.2596 27.7343C60.0517 27.84 59.876 27.9798 59.7308 28.1537C59.6054 27.7665 59.2899 27.5747 58.7862 27.5747C58.3381 27.5747 57.9599 27.7307 57.6498 28.0408L57.6911 27.6428H57.6857ZM64.7048 31.2438C64.6797 31.1739 64.669 31.0467 64.6726 30.8656C64.3428 31.1632 63.9807 31.3119 63.5828 31.3119C63.2279 31.3119 62.95 31.2116 62.7529 31.0108C62.5539 30.8101 62.4768 30.5555 62.5217 30.2472C62.5754 29.8726 62.76 29.5805 63.0737 29.3725C63.3892 29.1646 63.805 29.0607 64.3212 29.0607H64.9199L64.9611 28.7774C64.9916 28.5624 64.9522 28.3903 64.8428 28.263C64.7317 28.1358 64.5507 28.0712 64.3015 28.0712C64.0811 28.0712 63.8893 28.1268 63.7244 28.2379C63.5595 28.3491 63.4663 28.4835 63.443 28.6394H62.8228C62.8479 28.4602 62.9375 28.2863 63.0881 28.1178C63.2404 27.9511 63.4322 27.8185 63.6652 27.7199C63.8982 27.6213 64.1438 27.5729 64.4073 27.5729C64.8213 27.5729 65.1314 27.6769 65.3375 27.8848C65.5437 28.091 65.6243 28.3777 65.5795 28.7416L65.3411 30.3996C65.2927 30.7312 65.2999 30.9929 65.3555 31.1883L65.3483 31.242H64.7012L64.7048 31.2438ZM63.7495 30.7868C63.943 30.7868 64.133 30.7366 64.3195 30.6362C64.5077 30.5358 64.651 30.405 64.7514 30.2437L64.859 29.498H64.3768C63.6222 29.498 63.2135 29.7203 63.149 30.1666C63.1203 30.3602 63.1633 30.5125 63.2763 30.6219C63.3892 30.7312 63.5469 30.7868 63.7495 30.7868ZM67.2088 27.6428L67.164 28.0945C67.4885 27.7486 67.8738 27.5747 68.3166 27.5747C69.0783 27.5747 69.401 28.0049 69.2845 28.8635L68.9421 31.2438H68.3255L68.6679 28.8617C68.7037 28.6018 68.6715 28.41 68.5729 28.2863C68.4743 28.1626 68.3022 28.0999 68.0549 28.0999C67.8559 28.0999 67.6713 28.1537 67.5064 28.2594C67.3415 28.367 67.2035 28.5068 67.0941 28.6789L66.7249 31.2438H66.1083L66.6263 27.6428H67.2088ZM71.292 30.8065C71.5124 30.8065 71.7132 30.7402 71.896 30.6075C72.0806 30.4749 72.1954 30.3082 72.2402 30.1092H72.8227C72.7815 30.3153 72.6829 30.5125 72.5252 30.6989C72.3674 30.8853 72.1703 31.0341 71.9355 31.1452C71.7006 31.2564 71.4623 31.3119 71.2167 31.3119C70.7274 31.3119 70.3599 31.1488 70.1161 30.8208C69.8742 30.4928 69.7935 30.0447 69.876 29.4765L69.8903 29.3725C69.9405 29.023 70.0498 28.7093 70.2183 28.4369C70.3868 28.1644 70.6019 27.9511 70.8636 27.8006C71.1271 27.65 71.421 27.5747 71.749 27.5747C72.1541 27.5747 72.4714 27.6948 72.7044 27.9368C72.9374 28.1788 73.0342 28.4942 72.9966 28.8796H72.414C72.4302 28.6466 72.3692 28.4548 72.2312 28.3042C72.095 28.1537 71.9086 28.0784 71.6756 28.0784C71.3637 28.0784 71.1056 28.1913 70.8994 28.4154C70.6951 28.6412 70.5625 28.9674 70.5015 29.394L70.4854 29.5105C70.4262 29.9246 70.4657 30.2454 70.6037 30.4695C70.7417 30.6936 70.9693 30.8065 71.2866 30.8065H71.292ZM74.7567 31.3119C74.2692 31.3119 73.8946 31.1524 73.6329 30.8316C73.373 30.5107 73.2816 30.0823 73.3586 29.5446L73.3748 29.4317C73.4268 29.075 73.5397 28.7559 73.7171 28.4745C73.8946 28.1931 74.1168 27.9727 74.3839 27.8149C74.6528 27.6554 74.9288 27.5765 75.2156 27.5765C75.6834 27.5765 76.0258 27.7307 76.2409 28.039C76.4559 28.3473 76.5223 28.79 76.4398 29.3654L76.4022 29.6217H73.9609C73.9197 29.9766 73.9806 30.2634 74.1491 30.4803C74.3158 30.6989 74.5524 30.8083 74.8607 30.8083C75.0776 30.8083 75.2676 30.7635 75.4325 30.6756C75.5956 30.5878 75.7444 30.4695 75.8788 30.3243L76.2122 30.6183C75.8429 31.0825 75.3572 31.3137 74.7531 31.3137L74.7567 31.3119ZM75.1457 28.0802C74.8965 28.0802 74.6761 28.1716 74.4807 28.3526C74.2871 28.5337 74.1455 28.7882 74.0577 29.1162H75.8627L75.8698 29.0696C75.8967 28.7541 75.8483 28.5122 75.7211 28.3383C75.5938 28.1644 75.402 28.0784 75.1457 28.0784V28.0802ZM81.5608 29.0069H79.4601L79.2145 30.7186H81.654L81.5787 31.2438H78.4993L79.1966 26.3953H82.2437L82.1684 26.9205H79.7612L79.5371 28.4817H81.6378L81.5626 29.0069H81.5608ZM83.7314 28.9567L83.1309 27.6428H82.4175L83.3406 29.4227L81.8619 31.2438H82.5771L83.6023 29.8959L84.2422 31.2438H84.9556L84.0021 29.4227L85.4378 27.6428H84.719L83.7314 28.9567ZM86.9273 30.8065C87.1478 30.8065 87.3485 30.7402 87.5313 30.6075C87.716 30.4749 87.8307 30.3082 87.8755 30.1092H88.458C88.4168 30.3153 88.3182 30.5125 88.1605 30.6989C88.0027 30.8853 87.8056 31.0341 87.5708 31.1452C87.336 31.2564 87.0976 31.3119 86.852 31.3119C86.3627 31.3119 85.9952 31.1488 85.7515 30.8208C85.5095 30.4928 85.4288 30.0447 85.5113 29.4765L85.5256 29.3725C85.5758 29.023 85.6851 28.7093 85.8536 28.4369C86.0221 28.1644 86.2372 27.9511 86.4989 27.8006C86.7624 27.65 87.0563 27.5747 87.3844 27.5747C87.7894 27.5747 88.1067 27.6948 88.3397 27.9368C88.5727 28.1788 88.6695 28.4942 88.6319 28.8796H88.0493C88.0655 28.6466 88.0045 28.4548 87.8665 28.3042C87.7303 28.1537 87.5439 28.0784 87.3109 28.0784C86.999 28.0784 86.7409 28.1913 86.5347 28.4154C86.3304 28.6412 86.1978 28.9674 86.1368 29.394L86.1207 29.5105C86.0615 29.9246 86.101 30.2454 86.239 30.4695C86.377 30.6936 86.6047 30.8065 86.9219 30.8065H86.9273ZM90.3938 31.3119C89.9063 31.3119 89.5317 31.1524 89.27 30.8316C89.0101 30.5107 88.9187 30.0823 88.9957 29.5446L89.0119 29.4317C89.0639 29.075 89.1768 28.7559 89.3542 28.4745C89.5317 28.1931 89.7539 27.9727 90.021 27.8149C90.2899 27.6554 90.5659 27.5765 90.8527 27.5765C91.3205 27.5765 91.6629 27.7307 91.878 28.039C92.093 28.3473 92.1594 28.79 92.0769 29.3654L92.0393 29.6217H89.598C89.5568 29.9766 89.6177 30.2634 89.7862 30.4803C89.9529 30.6989 90.1895 30.8083 90.4978 30.8083C90.7147 30.8083 90.9047 30.7635 91.0696 30.6756C91.2327 30.5878 91.3815 30.4695 91.5159 30.3243L91.8493 30.6183C91.48 31.0825 90.9943 31.3137 90.3903 31.3137L90.3938 31.3119ZM90.781 28.0802C90.5318 28.0802 90.3114 28.1716 90.116 28.3526C89.9224 28.5337 89.7808 28.7882 89.693 29.1162H91.498L91.5051 29.0696C91.532 28.7541 91.4836 28.5122 91.3564 28.3383C91.2291 28.1644 91.0373 28.0784 90.781 28.0784V28.0802ZM93.1058 31.2438H92.4892L93.2241 26.13H93.8407L93.1058 31.2438ZM94.6759 31.2438H94.0593L94.7942 26.13H95.4108L94.6759 31.2438ZM97.0634 31.3119C96.5759 31.3119 96.2013 31.1524 95.9396 30.8316C95.6797 30.5107 95.5883 30.0823 95.6653 29.5446L95.6815 29.4317C95.7335 29.075 95.8464 28.7559 96.0238 28.4745C96.2013 28.1931 96.4235 27.9727 96.6906 27.8149C96.9595 27.6554 97.2355 27.5765 97.5223 27.5765C97.9901 27.5765 98.3325 27.7307 98.5476 28.039C98.7627 28.3473 98.829 28.79 98.7465 29.3654L98.7089 29.6217H96.2676C96.2264 29.9766 96.2873 30.2634 96.4558 30.4803C96.6225 30.6989 96.8591 30.8083 97.1674 30.8083C97.3843 30.8083 97.5743 30.7635 97.7392 30.6756C97.9023 30.5878 98.0511 30.4695 98.1855 30.3243L98.5189 30.6183C98.1496 31.0825 97.6639 31.3137 97.0598 31.3137L97.0634 31.3119ZM97.4506 28.0802C97.2015 28.0802 96.981 28.1716 96.7856 28.3526C96.592 28.5337 96.4504 28.7882 96.3626 29.1162H98.1676L98.1747 29.0696C98.2016 28.7541 98.1532 28.5122 98.026 28.3383C97.9005 28.1662 97.7069 28.0784 97.4506 28.0784V28.0802ZM100.207 27.6428L100.163 28.0945C100.487 27.7486 100.872 27.5747 101.315 27.5747C102.077 27.5747 102.399 28.0049 102.283 28.8635L101.941 31.2438H101.324L101.666 28.8617C101.702 28.6018 101.67 28.41 101.571 28.2863C101.473 28.1626 101.301 28.0999 101.053 28.0999C100.854 28.0999 100.67 28.1537 100.505 28.2594C100.34 28.367 100.202 28.5068 100.093 28.6789L99.7234 31.2438H99.1068L99.6248 27.6428H100.207ZM104.29 30.8065C104.511 30.8065 104.712 30.7402 104.895 30.6075C105.079 30.4749 105.194 30.3082 105.239 30.1092H105.821C105.78 30.3153 105.681 30.5125 105.524 30.6989C105.366 30.8853 105.169 31.0341 104.934 31.1452C104.699 31.2564 104.461 31.3119 104.215 31.3119C103.726 31.3119 103.358 31.1488 103.115 30.8208C102.873 30.4928 102.792 30.0447 102.874 29.4765L102.889 29.3725C102.939 29.023 103.048 28.7093 103.217 28.4369C103.385 28.1644 103.6 27.9511 103.862 27.8006C104.126 27.65 104.42 27.5747 104.748 27.5747C105.153 27.5747 105.47 27.6948 105.703 27.9368C105.936 28.1788 106.033 28.4942 105.995 28.8796H105.413C105.429 28.6466 105.368 28.4548 105.23 28.3042C105.093 28.1537 104.907 28.0784 104.674 28.0784C104.362 28.0784 104.104 28.1913 103.898 28.4154C103.694 28.6412 103.561 28.9674 103.5 29.394L103.484 29.5105C103.425 29.9246 103.464 30.2454 103.602 30.4695C103.74 30.6936 103.968 30.8065 104.285 30.8065H104.29ZM107.755 31.3119C107.268 31.3119 106.893 31.1524 106.631 30.8316C106.371 30.5107 106.28 30.0823 106.357 29.5446L106.373 29.4317C106.425 29.075 106.538 28.7559 106.716 28.4745C106.893 28.1931 107.115 27.9727 107.382 27.8149C107.651 27.6554 107.927 27.5765 108.214 27.5765C108.682 27.5765 109.024 27.7307 109.239 28.039C109.454 28.3473 109.521 28.79 109.438 29.3654L109.401 29.6217H106.959C106.918 29.9766 106.979 30.2634 107.148 30.4803C107.314 30.6989 107.551 30.8083 107.859 30.8083C108.076 30.8083 108.266 30.7635 108.431 30.6756C108.594 30.5878 108.743 30.4695 108.877 30.3243L109.211 30.6183C108.841 31.0825 108.356 31.3137 107.752 31.3137L107.755 31.3119ZM108.144 28.0802C107.895 28.0802 107.675 28.1716 107.479 28.3526C107.286 28.5337 107.144 28.7882 107.056 29.1162H108.861L108.868 29.0696C108.895 28.7541 108.847 28.5122 108.72 28.3383C108.592 28.1644 108.401 28.0784 108.144 28.0784V28.0802Z" fill="white" fill-opacity="0.32"/>
<path fill-rule="evenodd" clip-rule="evenodd" d="M114.884 2.61159H114.462L114.314 3.4594H113.939L114.323 1.25293H115.018C115.258 1.25293 115.441 1.31208 115.568 1.42679C115.696 1.5433 115.751 1.70283 115.733 1.90896C115.722 2.05235 115.674 2.17603 115.59 2.27999C115.506 2.38395 115.389 2.4664 115.237 2.52555L115.563 3.4361V3.4594H115.163L114.882 2.61159H114.884ZM114.513 2.3015L114.875 2.30508C115.005 2.30508 115.113 2.27103 115.201 2.20291C115.289 2.1348 115.339 2.04339 115.355 1.92509C115.371 1.81217 115.35 1.72434 115.294 1.66339C115.238 1.60245 115.154 1.57019 115.041 1.56481H114.642L114.513 2.3015Z" fill="white" fill-opacity="0.32"/>
<path fill-rule="evenodd" clip-rule="evenodd" d="M114.815 0.193848C116.015 0.193848 116.988 1.16713 116.988 2.36626C116.988 3.5654 116.015 4.53868 114.815 4.53868C113.616 4.53868 112.643 3.5654 112.643 2.36626C112.643 1.16713 113.616 0.193848 114.815 0.193848ZM114.815 0.629406C113.857 0.629406 113.079 1.40732 113.079 2.36626C113.079 3.32521 113.857 4.10312 114.815 4.10312C115.774 4.10312 116.552 3.32521 116.552 2.36626C116.552 1.40732 115.774 0.629406 114.815 0.629406Z" fill="white" fill-opacity="0.32"/>
</svg>
