<svg width="113" height="32" viewBox="0 0 113 32" fill="none" xmlns="http://www.w3.org/2000/svg">
<path fill-rule="evenodd" clip-rule="evenodd" d="M2.85062 8.07938C3.25033 6.02706 4.47635 5 6.53047 5V5.00179H42.0975C43.6761 5.00179 44.5304 5.60838 44.6588 6.82319C45.1046 6.66175 45.6154 6.58101 46.1914 6.58101H110.22C112.273 6.58101 113.101 7.60627 112.701 9.66039L109.948 24.274C109.548 26.3281 108.322 27.3552 106.302 27.3552H42.2731C40.6709 27.3552 39.8107 26.7495 39.6788 25.538C39.2408 25.6966 38.7407 25.776 38.1793 25.776H2.61223C0.525851 25.776 -0.302248 24.7489 0.0974625 22.6948L2.85062 8.07938ZM14.2146 17.2584C14.2307 15.5681 13.2521 14.2865 11.4811 13.3724V13.376C11.4395 13.3566 11.3936 13.3358 11.3445 13.3136C10.835 13.0829 9.97956 12.6955 9.98447 12.089C9.98805 11.7019 10.23 11.4904 10.6746 11.4904C11.3933 11.4904 12.1551 11.8381 13.2395 12.8795L15.005 9.5187C13.7503 8.35721 12.2501 7.75854 10.4702 7.75854C8.92873 7.75854 7.6579 8.25146 6.69179 9.16559C5.75973 10.0797 5.2686 11.2771 5.25606 12.72C5.23813 14.5142 6.25264 15.8513 8.2978 16.8013C9.1492 17.2243 9.52919 17.4179 9.58834 17.7871C9.56325 19.4147 6.30642 17.4842 5.41558 16.3335L3.20373 19.8628C4.93342 21.553 6.77245 22.3973 8.79251 22.3973C11.7375 22.3973 14.1859 20.4023 14.2146 17.2584ZM41.2533 12.7397H39.6831L40.1545 10.0475H36.2919L35.8205 12.7397H34.2252L33.6104 16.2259H35.1716L34.0854 22.4026H37.9122L39.0325 16.2259H40.6385L41.2533 12.7397ZM33.2573 11.4456L33.8309 8.0991C29.9987 7.2226 27.9607 9.00069 27.3172 12.7522H25.9657L25.3169 16.2331H26.7042L25.618 22.4026H29.7244L30.8106 16.2331H32.3844L32.9992 12.7522H31.4595C31.4738 11.8704 31.895 11.2842 33.2573 11.4456ZM24.8132 16.8909C24.8275 15.5645 24.4278 14.4694 23.6141 13.6395V13.6413C22.8021 12.8454 21.7105 12.4475 20.3411 12.4475C18.8014 12.4475 17.4947 13.0121 16.3888 14.1396C15.4191 15.2007 14.928 16.4948 14.9118 18.0542C14.8993 19.3143 15.299 20.3431 16.1128 21.139C16.9606 21.9689 18.0163 22.3668 19.3176 22.3668C21.0634 22.3668 22.5063 21.7018 23.5818 20.3091C24.4135 19.3125 24.8006 18.151 24.8132 16.8909ZM21.2337 17.262C21.2391 16.8927 21.128 16.5898 20.9021 16.3604C20.6763 16.1399 20.3751 16.0288 19.9952 16.0288C19.5686 16.0288 19.2065 16.1865 18.9 16.4984C18.6311 16.7924 18.4949 17.1508 18.4913 17.5828C18.4877 17.9323 18.5989 18.2173 18.8247 18.4378C19.0595 18.6672 19.3517 18.7784 19.7119 18.7784C20.1959 18.7784 20.5956 18.5937 20.8932 18.2084C21.1226 17.9323 21.2301 17.6115 21.2337 17.262ZM109.374 13.3976H107.804L108.241 10.8864H104.379L103.941 13.3976H102.346L101.697 17.0649H103.259L102.172 23.2416H105.999L107.119 17.0649H108.725L109.374 13.3976ZM54.5996 19.5743H49.8425H49.8407L50.0845 18.1314H54.225L54.8488 14.7365H50.7083L50.9951 13.4101H55.3757L56.0246 9.77152H47.4909L44.96 23.2237H53.9059L54.5996 19.5743ZM62.6476 15.5413L61.6367 13.4101H61.6349H56.6717L59.6274 18.4182L54.9025 23.2434H60.2081L61.7765 21.2502L62.9451 23.2434H67.8743L64.7609 18.4182L69.267 13.4101H64.1676L62.6476 15.5413ZM81.0038 17.2441C81.0146 13.0678 76.7809 12.3795 74.7142 14.8029V14.8011L74.9974 13.403H70.9895L68.7723 25.6542H72.8304L73.4953 21.5746C74.2464 22.7056 75.1372 23.1484 76.1983 23.1484C78.826 23.1484 80.9966 20.4329 81.0038 17.2441ZM77.1698 18.5992C77.4602 17.8213 77.1124 16.9681 76.3955 16.6921C75.6767 16.416 74.8612 16.8247 74.5708 17.6026C74.2804 18.3805 74.6282 19.2337 75.3451 19.5098C76.0639 19.7858 76.8794 19.3771 77.1698 18.5992ZM91.9806 18.5777C92.262 14.9588 90.0717 13.455 87.4279 13.3635V13.3617C84.7553 13.3617 81.8964 15.2044 81.8875 18.8914C81.8803 21.908 84.3843 23.1842 86.503 23.1842C88.817 23.1842 90.57 22.5748 91.6472 20.1013L88.186 19.6675C87.8724 20.8379 85.2554 21.1462 85.8039 18.5867L91.9806 18.5777ZM85.9832 16.9968H88.2291C88.3187 16.278 88.0713 15.5682 87.3185 15.5682C86.4743 15.5682 86.1319 16.2726 85.9832 16.9968ZM97.4842 15.1216C97.4833 15.1229 97.4824 15.1242 97.4815 15.1255H97.4833L97.4842 15.1216ZM101.273 13.403C99.0644 13.3994 98.4541 13.6749 97.4842 15.1216L97.84 13.4066L94.0168 13.4406L92.2531 23.2434H96.5208L97.2234 19.1764C97.4726 17.6546 98.3885 16.9627 100.624 17.0595L101.273 13.403Z" fill="white" fill-opacity="0.32"/>
</svg>
