<svg width="126" height="27" viewBox="0 0 126 27" fill="none" xmlns="http://www.w3.org/2000/svg">
<path d="M41.7106 21.4893V4.58655H35.637V0.575691H52.1387V4.58655H46.0652V21.4893H41.7106Z" fill="white" fill-opacity="0.32"/>
<path d="M51.4513 21.4893V6.30547H55.462V8.71189C56.4075 6.67793 57.6394 6.30547 58.9572 6.30547H60.5043V10.3735H59.1865C57.2958 10.3735 55.6054 11.4622 55.6054 14.7855V21.4893H51.4513Z" fill="white" fill-opacity="0.32"/>
<path d="M62.3951 15.9313V6.30541H66.5491V14.986C66.5491 16.7622 67.4085 18.08 69.1848 18.08C70.9037 18.08 71.9923 16.7622 71.9923 15.0146V6.30541H76.1464V21.4892H72.193V19.5697C71.1903 21.0881 69.7005 21.833 67.8095 21.833C64.4863 21.833 62.3951 19.5411 62.3951 15.9313Z" fill="white" fill-opacity="0.32"/>
<path d="M77.923 17.2207L81.5326 16.3899C81.7045 17.5645 82.65 18.4525 84.4546 18.4525C85.8586 18.4525 86.6322 17.8796 86.6322 17.1634C86.6322 16.5905 86.317 16.1607 84.8844 15.8455L82.5066 15.33C79.47 14.671 78.1808 13.2672 78.1808 10.7174C78.1808 8.11046 80.3295 6.01908 84.3688 6.01908C88.6661 6.01908 90.3852 8.59752 90.5571 10.2877L86.9186 11.0899C86.7467 10.2017 86.0877 9.22771 84.2828 9.22771C83.137 9.22771 82.2775 9.74343 82.2775 10.4882C82.2775 11.1185 82.7073 11.4624 83.4521 11.6343L86.9186 12.4364C89.5543 13.0379 90.786 14.6137 90.786 16.8483C90.786 19.2547 88.8667 21.7759 84.4834 21.7759C79.6705 21.7759 78.0949 18.8823 77.923 17.2207Z" fill="white" fill-opacity="0.32"/>
<path d="M98.7795 21.4893C96.0865 21.4893 94.2817 19.9995 94.2817 17.0486V9.94387H91.7321V6.30547H94.2817V2.92493L98.4357 1.72172V6.30547H101.501V9.94387H98.4357V16.3038C98.4357 17.4212 99.0086 17.8509 100.126 17.8509H101.73V21.4893H98.7795Z" fill="white" fill-opacity="0.32"/>
<path d="M103.994 21.4893V0.575691H108.148V21.4893H103.994Z" fill="white" fill-opacity="0.32"/>
<path d="M120.668 6.30544H125.108L118.777 26.9324H114.336L116.083 21.4892H113.791L109.609 6.30544H114.049L117.172 18.0514L120.668 6.30544Z" fill="white" fill-opacity="0.32"/>
<path d="M-0.00476074 9.73267H9.74589V1.95455L17.524 9.73267L9.74589 17.5095V21.4895H19.1874V9.73267H27.8608V0.575558H-0.00476074V9.73267Z" fill="white" fill-opacity="0.32"/>
</svg>
