<svg width="131" height="32" viewBox="0 0 131 32" fill="none" xmlns="http://www.w3.org/2000/svg">
<path d="M42.6161 23.7378V6.83509H36.5425V2.82423H53.0442V6.83509H46.9707V23.7378H42.6161Z" fill="white" fill-opacity="0.32"/>
<path d="M52.3569 23.7378V8.55401H56.3677V10.9604C57.3131 8.92647 58.545 8.55401 59.8628 8.55401H61.41V12.622H60.0921C58.2014 12.622 56.511 13.7108 56.511 17.034V23.7378H52.3569Z" fill="white" fill-opacity="0.32"/>
<path d="M63.3005 18.1799V8.55395H67.4545V17.2345C67.4545 19.0107 68.3139 20.3285 70.0901 20.3285C71.8091 20.3285 72.8977 19.0107 72.8977 17.2632V8.55395H77.0518V23.7377H73.0984V21.8183C72.0957 23.3366 70.6059 24.0815 68.7149 24.0815C65.3917 24.0815 63.3005 21.7896 63.3005 18.1799Z" fill="white" fill-opacity="0.32"/>
<path d="M78.8286 19.4692L82.4382 18.6384C82.6101 19.813 83.5556 20.701 85.3602 20.701C86.7643 20.701 87.5378 20.1282 87.5378 19.4119C87.5378 18.839 87.2227 18.4092 85.79 18.0941L83.4122 17.5785C80.3756 16.9195 79.0865 15.5158 79.0865 12.966C79.0865 10.359 81.2351 8.26761 85.2744 8.26761C89.5718 8.26761 91.2908 10.8461 91.4627 12.5362L87.8242 13.3384C87.6523 12.4503 86.9933 11.4762 85.1885 11.4762C84.0427 11.4762 83.1832 11.992 83.1832 12.7368C83.1832 13.3671 83.6129 13.7109 84.3577 13.8828L87.8242 14.6849C90.46 15.2864 91.6917 16.8622 91.6917 19.0969C91.6917 21.5033 89.7723 24.0244 85.389 24.0244C80.5762 24.0244 79.0005 21.1308 78.8286 19.4692Z" fill="white" fill-opacity="0.32"/>
<path d="M99.6852 23.7378C96.9921 23.7378 95.1874 22.2481 95.1874 19.2972V12.1924H92.6377V8.55401H95.1874V5.17347L99.3414 3.97026V8.55401H102.407V12.1924H99.3414V18.5524C99.3414 19.6698 99.9142 20.0994 101.032 20.0994H102.636V23.7378H99.6852Z" fill="white" fill-opacity="0.32"/>
<path d="M104.899 23.7378V2.82423H109.053V23.7378H104.899Z" fill="white" fill-opacity="0.32"/>
<path d="M121.573 8.55397H126.013L119.683 29.1809H115.241L116.989 23.7378H114.697L110.514 8.55397H114.955L118.077 20.2999L121.573 8.55397Z" fill="white" fill-opacity="0.32"/>
<path d="M0.900879 11.9812H10.6515V4.20308L18.4297 11.9812L10.6515 19.7581V23.738H20.093V11.9812H28.7665V2.82409H0.900879V11.9812Z" fill="white" fill-opacity="0.32"/>
</svg>
