<svg width="160" height="37" viewBox="0 0 160 37" fill="none" xmlns="http://www.w3.org/2000/svg">
<g opacity="0.32" clip-path="url(#clip0_92_794)">
<path fill-rule="evenodd" clip-rule="evenodd" d="M37.2907 17.7793H29.0438C25.431 17.7793 20.7996 20.8878 20.7996 26.06V35.5683C20.7996 35.5683 37.2907 35.6554 37.2907 17.7793Z" fill="white"/>
<path fill-rule="evenodd" clip-rule="evenodd" d="M2.27808 17.7793H10.525C14.1371 17.7793 18.7719 20.8878 18.7719 26.06V35.5683C18.7719 35.5683 2.27808 35.6554 2.27808 17.7793Z" fill="white"/>
<path fill-rule="evenodd" clip-rule="evenodd" d="M2.27808 17.7793H10.525C14.1371 17.7793 18.7719 20.8878 18.7719 26.06V35.5683C18.7719 35.5683 2.27808 35.6554 2.27808 17.7793Z" fill="white"/>
<path fill-rule="evenodd" clip-rule="evenodd" d="M10.5246 0.0268555H0.146729V15.6396H10.5246C12.1225 15.6732 13.6927 16.0647 15.1197 16.7853C16.5468 17.5058 17.7946 18.5372 18.7715 19.8037V12.4023C18.7702 3.74212 13.5727 0.0268555 10.5246 0.0268555Z" fill="#ACACAC"/>
<path fill-rule="evenodd" clip-rule="evenodd" d="M29.0439 0.0268555H39.4211V15.639H29.0439C27.4465 15.6729 25.8769 16.0646 24.4504 16.7852C23.0239 17.5058 21.7767 18.5371 20.8003 19.8034V12.4023C20.8003 3.74212 25.9988 0.0268555 29.0439 0.0268555Z" fill="#ACACAC"/>
<path d="M53.9006 36.0267C48.9066 36.0267 45.9585 32.7184 45.9585 28.0159V17.6724H50.5362V28.1553C50.5362 29.1659 50.8829 31.5684 53.9009 31.5684C55.9131 31.5684 57.3695 30.1396 57.3695 28.1553V17.6724H61.9479V28.0159C61.9479 32.579 58.7563 36.0267 53.9006 36.0267Z" fill="white"/>
<path d="M73.7026 17.2188C78.6962 17.2188 81.6447 20.5281 81.6447 25.2299V35.6081H77.0673V25.1255C77.0673 24.1149 76.7209 21.7125 73.7026 21.7125C71.6903 21.7125 70.2339 23.1052 70.2339 25.1255V35.6081H65.6562V25.2299C65.6562 20.6668 68.8458 17.2188 73.7026 17.2188Z" fill="white"/>
<path d="M85.7688 15.722V13.1459C85.7688 12.5335 86.0118 11.9462 86.4443 11.5132C86.8768 11.0802 87.4633 10.8369 88.075 10.8369C88.6866 10.8369 89.2732 11.0802 89.7057 11.5132C90.1381 11.9462 90.3811 12.5335 90.3811 13.1459V15.722H85.7688ZM90.3811 35.6082H85.8031V17.6723H90.3811V35.6082Z" fill="white"/>
<path d="M104.286 35.6083H99.3621L92.5996 17.6724H97.3864L101.826 31.0462L106.301 17.6724H111.018L104.286 35.6083Z" fill="white"/>
<path d="M113.234 15.722V13.1459C113.234 12.5335 113.477 11.9462 113.909 11.5132C114.342 11.0802 114.928 10.8369 115.54 10.8369C116.151 10.8369 116.738 11.0802 117.171 11.5132C117.603 11.9462 117.846 12.5335 117.846 13.1459V15.722H113.234ZM117.846 35.6082H113.268V17.6723H117.846V35.6082Z" fill="white"/>
<path d="M121.832 9.69678H126.446V28.0855C126.446 30.6286 127.589 31.5333 129.843 31.3939V35.5735C124.607 36.1304 121.831 32.9974 121.831 28.0855L121.832 9.69678Z" fill="white"/>
<path d="M131.819 9.69678H136.433V28.0855C136.433 30.6286 137.576 31.5333 139.83 31.3939V35.5735C134.594 36.1304 131.819 32.9974 131.819 28.0855L131.819 9.69678Z" fill="white"/>
<path d="M159.008 29.8967C157.967 33.5532 154.812 36.0266 150.372 36.0266C145.309 36.0266 141.217 31.8473 141.217 26.6577C141.217 21.4681 145.309 17.2188 150.372 17.2188C154.672 17.2188 158.28 19.9356 159.147 24.7424L146.524 30.0708C146.96 30.672 147.534 31.1598 148.198 31.4931C148.861 31.8264 149.595 31.9955 150.337 31.9863C151.829 31.9863 153.356 31.3258 154.12 29.8967H159.008ZM153.877 22.8618C153.445 22.347 152.902 21.9358 152.29 21.6585C151.678 21.3812 151.011 21.2448 150.339 21.2593C147.704 21.2593 145.589 23.35 145.484 26.4139L153.877 22.8618Z" fill="white"/>
</g>
<defs>
<clipPath id="clip0_92_794">
<rect width="159" height="36" fill="white" transform="translate(0.146729 0.0268555)"/>
</clipPath>
</defs>
</svg>
